<?xml version="1.0" encoding="utf-8"?>
<!-- Generator: Adobe Illustrator 26.5.0, SVG Export Plug-In . SVG Version: 6.00 Build 0)  -->
<svg version="1.1" id="Warstwa_1" xmlns="http://www.w3.org/2000/svg" xmlns:xlink="http://www.w3.org/1999/xlink" x="0px" y="0px"
	 viewBox="0 0 70 70" style="enable-background:new 0 0 70 70;" xml:space="preserve">
<style type="text/css">
	.st0{fill:#F27389;}
</style>
<path class="st0" d="M62,35c0-7.4-6-13.4-13.4-13.4c-3.6,0-6.9,1.4-9.5,3.9L25.5,39.2c-1.1,1.1-2.6,1.7-4.2,1.7
	c-3.2,0-5.9-2.6-5.9-5.9c0-3.2,2.6-5.9,5.9-5.9c1.6,0,3,0.6,4.2,1.7l1.9,1.9l5.3-5.3l-1.9-1.9c-2.5-2.5-5.9-3.9-9.5-3.9
	C14,21.6,8,27.6,8,35c0,7.4,6,13.4,13.4,13.4c3.6,0,6.9-1.4,9.5-3.9l13.6-13.6c1.1-1.1,2.6-1.7,4.2-1.7c3.2,0,5.9,2.6,5.9,5.9
	s-2.6,5.9-5.9,5.9c-1.6,0-3-0.6-4.2-1.7l-1.9-1.9l-5.3,5.3l1.9,1.9c2.5,2.5,5.9,3.9,9.5,3.9C56,48.4,62,42.4,62,35z"/>
</svg>
