<?xml version="1.0" encoding="utf-8"?>
<!-- Generator: Adobe Illustrator 26.5.0, SVG Export Plug-In . SVG Version: 6.00 Build 0)  -->
<svg version="1.1" id="Warstwa_1" xmlns="http://www.w3.org/2000/svg" xmlns:xlink="http://www.w3.org/1999/xlink" x="0px" y="0px"
	 viewBox="0 0 101 100" style="enable-background:new 0 0 101 100;" xml:space="preserve">
<style type="text/css">
	.st0{fill:#FAC7D0;enable-background:new    ;}
	.st1{fill:#F27389;}
</style>
<path class="st0" d="M25.5,16.7h8.1c0.3,0,0.6,0.1,0.9,0.4c0.2,0.2,0.4,0.6,0.4,0.9v64.2c0,0.3-0.1,0.6-0.4,0.9
	c-0.2,0.2-0.6,0.4-0.9,0.4h-8.1c-1.7,0.2-3.4,0.1-5.1-0.5c-1.6-0.5-3.1-1.5-4.3-2.7S14,77.6,13.4,76c-0.5-1.6-0.7-3.4-0.5-5.1V29.2
	c-0.2-1.7-0.1-3.4,0.5-5.1c0.5-1.6,1.5-3.1,2.7-4.3s2.7-2.1,4.3-2.7C22.1,16.6,23.8,16.4,25.5,16.7L25.5,16.7z"/>
<path class="st1" d="M88,29.2v16.5c0,0.3-0.1,0.6-0.4,0.9C87.4,46.8,87,47,86.7,47H41.1V18c0-0.2,0-0.3,0.1-0.5s0.2-0.3,0.3-0.4
	s0.3-0.2,0.4-0.3c0.2-0.1,0.3-0.1,0.5-0.1h33.1c1.7-0.2,3.4-0.1,5.1,0.5c1.6,0.5,3.1,1.5,4.3,2.7c1.2,1.2,2.1,2.7,2.7,4.3
	C88.1,25.7,88.2,27.5,88,29.2L88,29.2z"/>
<path class="st1" d="M41.1,53.1h45.6c0.2,0,0.3,0,0.5,0.1s0.3,0.2,0.4,0.3s0.2,0.3,0.3,0.4C88,54,88,54.2,88,54.4v16.5
	c0.2,1.7,0.1,3.4-0.5,5.1c-0.5,1.6-1.5,3.1-2.7,4.3c-1.2,1.2-2.7,2.1-4.3,2.7c-1.6,0.5-3.4,0.7-5.1,0.5h-33c-0.2,0-0.3,0-0.5-0.1
	s-0.3-0.2-0.4-0.3c-0.1-0.1-0.2-0.3-0.3-0.4c-0.1-0.2-0.1-0.3-0.1-0.5C41.1,82.2,41.1,53.1,41.1,53.1z"/>
</svg>
