<?xml version="1.0" encoding="utf-8"?>
<!-- Generator: Adobe Illustrator 26.5.0, SVG Export Plug-In . SVG Version: 6.00 Build 0)  -->
<svg version="1.1" id="Warstwa_1" xmlns="http://www.w3.org/2000/svg" xmlns:xlink="http://www.w3.org/1999/xlink" x="0px" y="0px"
	 viewBox="0 0 101 100" style="enable-background:new 0 0 101 100;" xml:space="preserve">
<style type="text/css">
	.st0{fill:#F27389;}
	.st1{fill:#FAC7D0;enable-background:new    ;}
</style>
<path class="st0" d="M91.4,40.7c-2.2-9.3-7.5-17.5-15-23.4s-16.8-9.1-26.3-9c-11,0-21.6,4.5-29.4,12.3c-7.8,7.9-12.1,18.5-12,29.6
	c0,11,4.5,21.6,12.3,29.4c7.9,7.8,18.5,12.1,29.5,12.1c7.8,0,8.6-6.7,1.2-10.8c-5.5-3.1-5.2-12.3,8.1-12.3h9.3
	C78.3,68.5,96,63.9,91.4,40.7z M34.1,61.2c-0.6,0.9-1.4,1.5-2.3,1.9c-1,0.4-2,0.5-3,0.3s-1.9-0.7-2.7-1.4c-0.7-0.7-1.2-1.7-1.4-2.7
	c-0.2-1-0.1-2,0.3-3s1-1.8,1.9-2.3c0.8-0.6,1.8-0.9,2.9-0.9l0,0c1.4,0,2.7,0.5,3.7,1.5s1.5,2.3,1.5,3.7C35,59.4,34.7,60.4,34.1,61.2
	z M34.1,44.6c-0.6,0.8-1.4,1.5-2.3,1.9c-1,0.4-2,0.5-3,0.3s-1.9-0.7-2.7-1.4c-0.7-0.7-1.2-1.6-1.4-2.6c-0.2-1-0.1-2.1,0.3-3
	c0.4-1,1-1.8,1.9-2.3c0.8-0.6,1.8-0.9,2.9-0.9l0,0c1.4,0,2.7,0.5,3.7,1.5s1.5,2.3,1.5,3.7C35,42.7,34.7,43.7,34.1,44.6z M46.6,32.1
	c-0.6,0.8-1.4,1.5-2.3,1.9c-1,0.4-2,0.5-3,0.3s-1.9-0.7-2.7-1.4c-0.7-0.7-1.2-1.6-1.4-2.6s-0.1-2.1,0.3-3c0.4-1,1-1.8,1.9-2.3
	c0.8-0.6,1.8-0.9,2.9-0.9l0,0c1.4,0,2.7,0.5,3.7,1.5s1.5,2.3,1.5,3.7C47.5,30.2,47.2,31.2,46.6,32.1z M63.2,32.1
	c-0.6,0.8-1.4,1.5-2.3,1.9c-1,0.4-2,0.5-3,0.3s-1.9-0.7-2.7-1.4c-0.7-0.7-1.2-1.6-1.4-2.6s-0.1-2.1,0.3-3c0.4-1,1-1.8,1.9-2.3
	c0.9-0.6,1.9-0.9,2.9-0.9l0,0c1.4,0,2.7,0.5,3.7,1.5s1.5,2.3,1.5,3.7C64.1,30.2,63.8,31.2,63.2,32.1z M75.1,45.3
	c-1,1-2.3,1.5-3.7,1.5s-2.7-0.5-3.7-1.5s-1.5-2.3-1.5-3.7s0.5-2.7,1.5-3.7s2.3-1.5,3.7-1.5l0,0c1.4,0,2.7,0.5,3.7,1.5
	s1.5,2.3,1.5,3.7S76.1,44.4,75.1,45.3z"/>
<path class="st1" d="M71.4,46.9c-1.4,0-2.7-0.5-3.7-1.5s-1.5-2.3-1.5-3.7s0.5-2.7,1.5-3.7s2.3-1.5,3.7-1.5l0,0
	c1.4,0,2.7,0.5,3.7,1.5s1.5,2.3,1.5,3.7s-0.5,2.7-1.5,3.7C74.1,46.3,72.8,46.9,71.4,46.9z M47.5,29.2c0-1.4-0.5-2.7-1.5-3.7
	S43.7,24,42.3,24l0,0c-1,0-2,0.3-2.9,0.9s-1.5,1.4-1.9,2.3c-0.4,1-0.5,2-0.3,3s0.7,1.9,1.4,2.7c0.7,0.7,1.7,1.2,2.7,1.4
	s2.1,0.1,3-0.3c0.9-0.4,1.8-1.1,2.3-1.9C47.2,31.2,47.5,30.2,47.5,29.2L47.5,29.2z M64.1,29.2c0-1.4-0.5-2.7-1.5-3.7
	S60.3,24,58.9,24l0,0c-1,0-2,0.3-2.9,0.9s-1.5,1.4-1.9,2.3c-0.4,1-0.5,2-0.3,3s0.7,1.9,1.4,2.7c0.7,0.7,1.7,1.2,2.7,1.4
	s2.1,0.1,3-0.3s1.8-1.1,2.3-1.9C63.8,31.2,64.1,30.2,64.1,29.2L64.1,29.2z M35,41.7c0-1.4-0.5-2.7-1.5-3.7s-2.3-1.5-3.7-1.5l0,0
	c-1,0-2,0.3-2.9,0.9s-1.5,1.4-1.9,2.3c-0.4,1-0.5,2-0.3,3s0.7,1.9,1.4,2.7c0.7,0.7,1.7,1.2,2.7,1.4s2.1,0.1,3-0.3
	c0.9-0.4,1.8-1.1,2.3-1.9C34.7,43.7,35,42.7,35,41.7z M35,58.3c0-1.4-0.5-2.7-1.5-3.7s-2.3-1.5-3.7-1.5l0,0c-1,0-2,0.3-2.9,0.9
	c-0.9,0.6-1.5,1.4-1.9,2.3s-0.5,2-0.3,3s0.7,1.9,1.4,2.7c0.7,0.7,1.7,1.2,2.7,1.4s2.1,0.1,3-0.3c0.9-0.4,1.8-1.1,2.3-1.9
	C34.7,60.4,35,59.4,35,58.3L35,58.3z"/>
</svg>
