<?xml version="1.0" encoding="utf-8"?>
<!-- Generator: Adobe Illustrator 26.5.0, SVG Export Plug-In . SVG Version: 6.00 Build 0)  -->
<svg version="1.1" id="Warstwa_1" xmlns="http://www.w3.org/2000/svg" xmlns:xlink="http://www.w3.org/1999/xlink" x="0px" y="0px"
	 viewBox="0 0 101 100" style="enable-background:new 0 0 101 100;" xml:space="preserve">
<style type="text/css">
	.st0{fill:#F07087;}
	.st1{fill:#FAC7D0;enable-background:new    ;}
</style>
<path class="st0" d="M50.5,8.3C27.5,8.3,8.8,27,8.8,50s18.7,41.7,41.7,41.7S92.2,73,92.2,50S73.5,8.3,50.5,8.3z M30.8,40.6
	c-1.4,3-2.2,6.2-2.2,9.4c0,3.8,1,7.6,3,10.9c0.4,0.7,0.5,1.6,0.3,2.4c-0.2,0.8-0.7,1.5-1.4,1.9c-0.7,0.4-1.6,0.5-2.4,0.3
	s-1.5-0.7-1.9-1.4c-2.5-4.3-3.8-9.1-3.8-14.1c0-7.5,3-14.6,8.2-19.9s12.4-8.2,19.9-8.2c2,0,4.1,0.2,6.1,0.7c0.8,0.2,1.5,0.7,2,1.3
	c0.5,0.7,0.6,1.5,0.4,2.4c-0.2,0.8-0.7,1.5-1.3,2c-0.7,0.5-1.5,0.6-2.4,0.4c-3.2-0.7-6.5-0.7-9.7,0.1c-3.2,0.8-6.2,2.2-8.7,4.2
	C34.3,35,32.2,37.6,30.8,40.6z M65.2,36.9c-3.1,6-6.5,11.9-10.3,17.5c-0.6,0.6-1.3,1-2,1.4c-0.8,0.3-1.6,0.5-2.4,0.5
	s-1.6-0.2-2.4-0.5c-0.8-0.3-1.5-0.8-2-1.4c-0.6-0.6-1-1.3-1.4-2c-0.3-0.8-0.5-1.6-0.5-2.4s0.2-1.6,0.5-2.4c0.3-0.8,0.8-1.5,1.4-2
	c5.6-3.8,11.5-7.3,17.5-10.3c0.2-0.1,0.5-0.2,0.8-0.1c0.2,0,0.5,0.2,0.7,0.3c0.2,0.2,0.3,0.4,0.3,0.7C65.4,36.4,65.4,36.7,65.2,36.9
	z M74.8,64.1c-0.4,0.7-1.1,1.2-1.9,1.4c-0.8,0.2-1.7,0.1-2.4-0.3c-0.7-0.4-1.2-1.1-1.4-1.9c-0.2-0.8-0.1-1.7,0.3-2.4
	c2-3.3,3-7.1,3-10.9c0-1.6-0.2-3.2-0.5-4.8c-0.2-0.8,0-1.7,0.4-2.3c0.5-0.7,1.2-1.2,2-1.4s1.6,0,2.3,0.4c0.7,0.4,1.2,1.1,1.4,2
	c0.4,2,0.7,4,0.7,6.1C78.6,55,77.3,59.8,74.8,64.1z"/>
<path class="st1" d="M46.1,54.4c-0.6-0.6-1-1.3-1.4-2s-0.5-1.6-0.5-2.4s0.2-1.6,0.5-2.4s0.8-1.4,1.4-2c5.6-3.8,11.4-7.3,17.5-10.3
	c0.2-0.1,0.5-0.1,0.8-0.1s0.5,0.2,0.7,0.3c0.2,0.2,0.3,0.4,0.3,0.7s0,0.5-0.1,0.8c-3.1,6.1-6.5,11.9-10.3,17.5c-0.6,0.6-1.3,1-2,1.4
	c-0.8,0.3-1.6,0.5-2.4,0.5c-0.8,0-1.6-0.2-2.4-0.5C47.3,55.5,46.7,55,46.1,54.4L46.1,54.4z M30.5,65.2c0.7-0.4,1.2-1.1,1.4-1.9
	s0.1-1.7-0.3-2.4c-2-3.3-3-7.1-2.9-10.9c0-3.3,0.8-6.5,2.2-9.4s3.5-5.5,6-7.6c2.6-2,5.5-3.5,8.7-4.2c3.2-0.8,6.5-0.8,9.7-0.1
	c0.8,0.2,1.7,0,2.4-0.4c0.7-0.5,1.2-1.2,1.4-2s0-1.7-0.4-2.4c-0.5-0.7-1.2-1.2-2-1.4c-2-0.4-4-0.6-6.1-0.6c-7.5,0-14.6,3-19.9,8.2
	c-5.3,5.3-8.2,12.4-8.2,19.9c0,5,1.3,9.8,3.8,14.1c0.4,0.7,1.1,1.2,1.9,1.4S29.8,65.6,30.5,65.2L30.5,65.2z M74.8,64.1
	c2.5-4.3,3.8-9.1,3.8-14.1c0-2-0.2-4.1-0.7-6.1c-0.2-0.8-0.7-1.5-1.4-2c-0.7-0.4-1.5-0.6-2.4-0.4c-0.8,0.2-1.5,0.7-2,1.4
	c-0.4,0.7-0.6,1.5-0.4,2.4c0.3,1.6,0.5,3.2,0.5,4.8c0,3.8-1,7.6-2.9,10.9c-0.4,0.7-0.5,1.6-0.3,2.4c0.2,0.8,0.7,1.5,1.4,1.9
	c0.7,0.4,1.6,0.5,2.4,0.3C73.7,65.3,74.4,64.8,74.8,64.1L74.8,64.1z"/>
</svg>
