<?xml version="1.0" encoding="utf-8"?>
<!-- Generator: Adobe Illustrator 26.5.0, SVG Export Plug-In . SVG Version: 6.00 Build 0)  -->
<svg version="1.1" id="Warstwa_1" xmlns="http://www.w3.org/2000/svg" xmlns:xlink="http://www.w3.org/1999/xlink" x="0px" y="0px"
	 viewBox="0 0 70 70" style="enable-background:new 0 0 70 70;" xml:space="preserve">
<style type="text/css">
	.st0{fill:#F07087;enable-background:new    ;}
</style>
<path class="st0" d="M37.8,13.4l5.7,11.4c0.2,0.4,0.5,0.8,0.9,1.1c0.4,0.3,0.8,0.5,1.3,0.5l13.1,1.9c0.5,0.1,1,0.3,1.5,0.7
	c0.4,0.4,0.7,0.8,0.9,1.3c0.2,0.5,0.2,1.1,0.1,1.6c-0.1,0.5-0.4,1-0.8,1.4l-9.5,9.2c-0.3,0.3-0.6,0.7-0.7,1.2
	C50,44.1,50,44.6,50.1,45l2.2,12.5c0.1,0.6,0,1.2-0.2,1.7c-0.2,0.5-0.6,1-1.1,1.3c-0.5,0.3-1,0.5-1.6,0.6s-1.2-0.1-1.7-0.4L36.4,55
	c-0.4-0.2-0.9-0.3-1.4-0.3s-0.9,0.1-1.4,0.3l-11.3,5.9c-0.5,0.3-1.1,0.4-1.7,0.3c-0.6,0-1.1-0.2-1.6-0.6c-0.5-0.3-0.8-0.8-1.1-1.4
	c-0.2-0.5-0.3-1.1-0.2-1.7L19.9,45c0.1-0.5,0-0.9-0.1-1.4c-0.1-0.5-0.4-0.9-0.7-1.2l-9.5-9.2c-0.4-0.4-0.7-0.9-0.8-1.4
	c-0.1-0.5-0.1-1.1,0.1-1.6c0.2-0.5,0.5-1,0.9-1.3c0.4-0.3,0.9-0.6,1.5-0.7l13.1-1.9c0.5-0.1,0.9-0.2,1.3-0.5
	c0.4-0.3,0.7-0.7,0.9-1.1l5.7-11.4c0.3-0.5,0.7-1,1.2-1.3c0.5-0.3,1.1-0.5,1.7-0.5s1.2,0.2,1.7,0.5C37.1,12.5,37.5,12.9,37.8,13.4z"
	/>
</svg>
