<svg width="40" height="40" viewBox="0 0 40 40" fill="none" xmlns="http://www.w3.org/2000/svg">
<path opacity="0.4" d="M29.9999 13.3333V20.3583C29.9966 20.4849 29.9454 20.6056 29.8566 20.6959C29.7679 20.7863 29.6481 20.8395 29.5216 20.845C27.1778 20.9719 24.9716 21.9913 23.3558 23.6938C21.7401 25.3963 20.8375 27.6528 20.8332 30C20.8305 30.9038 20.9642 31.8028 21.2299 32.6666C21.2564 32.7417 21.2647 32.822 21.2539 32.9008C21.2432 32.9797 21.2137 33.0549 21.1681 33.1201C21.1225 33.1853 21.0619 33.2386 20.9915 33.2757C20.9211 33.3128 20.8428 33.3326 20.7632 33.3333H9.99988C9.32071 33.4302 8.6283 33.3677 7.97747 33.1507C7.32665 32.9337 6.73527 32.5681 6.25016 32.083C5.76504 31.5979 5.39952 31.0065 5.18251 30.3557C4.9655 29.7049 4.90298 29.0125 4.99988 28.3333V8.33331C4.90298 7.65414 4.9655 6.96173 5.18251 6.31091C5.39952 5.66008 5.76504 5.0687 6.25016 4.58359C6.73527 4.09848 7.32665 3.73295 7.97747 3.51594C8.6283 3.29894 9.32071 3.23641 9.99988 3.33332H19.9999V8.33331C19.9999 9.6594 20.5267 10.9312 21.4644 11.8688C22.402 12.8065 23.6738 13.3333 24.9999 13.3333H29.9999Z" fill="#815AF0"/>
<path d="M24.9999 13.3333H29.9999L19.9999 3.33331V8.33331C19.903 9.01248 19.9655 9.70489 20.1825 10.3557C20.3995 11.0065 20.765 11.5979 21.2502 12.083C21.7353 12.5681 22.3266 12.9337 22.9775 13.1507C23.6283 13.3677 24.3207 13.4302 24.9999 13.3333Z" fill="#815AF0"/>
<path d="M23.3332 19.5833H11.6665C11.335 19.5833 11.017 19.4516 10.7826 19.2172C10.5482 18.9828 10.4165 18.6648 10.4165 18.3333C10.4165 18.0018 10.5482 17.6839 10.7826 17.4494C11.017 17.215 11.335 17.0833 11.6665 17.0833H23.3332C23.6647 17.0833 23.9826 17.215 24.2171 17.4494C24.4515 17.6839 24.5832 18.0018 24.5832 18.3333C24.5832 18.6648 24.4515 18.9828 24.2171 19.2172C23.9826 19.4516 23.6647 19.5833 23.3332 19.5833ZM19.5832 25C19.5832 24.6685 19.4515 24.3505 19.2171 24.1161C18.9826 23.8817 18.6647 23.75 18.3332 23.75H11.6665C11.335 23.75 11.017 23.8817 10.7826 24.1161C10.5482 24.3505 10.4165 24.6685 10.4165 25C10.4165 25.3315 10.5482 25.6494 10.7826 25.8839C11.017 26.1183 11.335 26.25 11.6665 26.25H18.3332C18.6647 26.25 18.9826 26.1183 19.2171 25.8839C19.4515 25.6494 19.5832 25.3315 19.5832 25Z" fill="#815AF0"/>
<path d="M29.9999 23.3333C28.6814 23.3333 27.3924 23.7243 26.2961 24.4568C25.1998 25.1894 24.3453 26.2306 23.8407 27.4488C23.3361 28.6669 23.2041 30.0074 23.4614 31.3006C23.7186 32.5938 24.3535 33.7817 25.2859 34.714C26.2182 35.6464 27.4061 36.2813 28.6993 36.5385C29.9925 36.7958 31.333 36.6638 32.5511 36.1592C33.7693 35.6546 34.8105 34.8001 35.5431 33.7038C36.2756 32.6075 36.6666 31.3185 36.6666 30C36.6666 28.2319 35.9642 26.5362 34.714 25.2859C33.4637 24.0357 31.768 23.3333 29.9999 23.3333ZM32.0833 30.8333H30.8333V32.0833C30.8333 32.3043 30.7455 32.5163 30.5892 32.6726C30.4329 32.8288 30.2209 32.9166 29.9999 32.9166C29.7789 32.9166 29.5669 32.8288 29.4107 32.6726C29.2544 32.5163 29.1666 32.3043 29.1666 32.0833V30.8333H27.9166C27.6956 30.8333 27.4836 30.7455 27.3273 30.5892C27.1711 30.433 27.0833 30.221 27.0833 30C27.0833 29.779 27.1711 29.567 27.3273 29.4107C27.4836 29.2544 27.6956 29.1666 27.9166 29.1666H29.1666V27.9166C29.1666 27.6956 29.2544 27.4837 29.4107 27.3274C29.5669 27.1711 29.7789 27.0833 29.9999 27.0833C30.2209 27.0833 30.4329 27.1711 30.5892 27.3274C30.7455 27.4837 30.8333 27.6956 30.8333 27.9166V29.1666H32.0833C32.3043 29.1666 32.5162 29.2544 32.6725 29.4107C32.8288 29.567 32.9166 29.779 32.9166 30C32.9166 30.221 32.8288 30.433 32.6725 30.5892C32.5162 30.7455 32.3043 30.8333 32.0833 30.8333Z" fill="#815AF0"/>
</svg>
