<svg width="133" height="132" viewBox="0 0 133 132" fill="none" xmlns="http://www.w3.org/2000/svg">
<path opacity="0.4" d="M58.3066 61.3253C59.6736 61.8975 61.0916 62.3395 62.5416 62.6453V115.005C61.6523 114.776 60.7868 114.463 59.9566 114.07L26.9566 99.3853C24.0429 98.0883 21.5675 95.9746 19.83 93.3001C18.0925 90.6255 17.1674 87.5047 17.1666 84.3153V47.6853C17.171 46.2163 17.3745 44.7547 17.7716 43.3403L58.3066 61.3253Z" fill="#DCD9E5"/>
<path opacity="0.4" d="M111.382 36.0802L92.1866 44.6052L82.1766 49.0602L71.7266 53.7352C70.1334 54.4423 68.4097 54.8076 66.6666 54.8076C64.9236 54.8076 63.1998 54.4423 61.6066 53.7352L21.9516 36.0802C23.3828 34.6156 25.0819 33.4393 26.9566 32.6152L37.3516 27.9952L47.3616 23.5402L59.9566 17.9302C62.0656 16.9785 64.3529 16.4863 66.6666 16.4863C68.9804 16.4863 71.2677 16.9785 73.3766 17.9302L106.377 32.6152C108.251 33.4393 109.95 34.6156 111.382 36.0802Z" fill="#DCD9E5"/>
<path opacity="0.4" d="M116.167 47.6853V84.3153C116.166 87.5047 115.241 90.6255 113.503 93.3001C111.766 95.9746 109.29 98.0883 106.377 99.3853L73.3766 114.07C72.5465 114.463 71.6809 114.776 70.7916 115.005V62.6453C72.2349 62.3141 73.6507 61.8728 75.0266 61.3253L88.0066 55.5503L96.2566 51.9203L115.562 43.3403C115.959 44.7547 116.162 46.2163 116.167 47.6853Z" fill="#DCD9E5"/>
<path d="M92.1866 44.605L82.1766 49.06L37.3516 27.995L47.3616 23.54L92.1866 44.605Z" fill="#DCD9E5"/>
<path d="M96.2566 51.9204V65.3954C96.2566 66.4894 95.822 67.5386 95.0484 68.3122C94.2748 69.0858 93.2256 69.5204 92.1316 69.5204C91.0376 69.5204 89.9884 69.0858 89.2148 68.3122C88.4412 67.5386 88.0066 66.4894 88.0066 65.3954V55.5504L96.2566 51.9204Z" fill="#DCD9E5"/>
</svg>
