<svg width="133" height="132" viewBox="0 0 133 132" fill="none" xmlns="http://www.w3.org/2000/svg">
<path d="M110.667 38.5V49.5H11.6666V38.5C11.3468 36.2587 11.5532 33.9738 12.2693 31.826C12.9854 29.6783 14.1917 27.7268 15.7925 26.1259C17.3934 24.525 19.3449 23.3188 21.4927 22.6027C23.6404 21.8866 25.9253 21.6802 28.1666 22H94.1666C96.4079 21.6802 98.6928 21.8866 100.841 22.6027C102.988 23.3188 104.94 24.525 106.541 26.1259C108.142 27.7268 109.348 29.6783 110.064 31.826C110.78 33.9738 110.986 36.2587 110.667 38.5Z" fill="#DCD9E5"/>
<path d="M50.1666 81.125H33.6666C32.5726 81.125 31.5234 80.6904 30.7498 79.9168C29.9762 79.1432 29.5416 78.094 29.5416 77C29.5416 75.906 29.9762 74.8568 30.7498 74.0832C31.5234 73.3096 32.5726 72.875 33.6666 72.875H50.1666C51.2606 72.875 52.3099 73.3096 53.0834 74.0832C53.857 74.8568 54.2916 75.906 54.2916 77C54.2916 78.094 53.857 79.1432 53.0834 79.9168C52.3099 80.6904 51.2606 81.125 50.1666 81.125Z" fill="#DCD9E5"/>
<path d="M99.6666 71.5C95.3155 71.5 91.062 72.7903 87.4441 75.2077C83.8262 77.6251 81.0064 81.061 79.3413 85.081C77.6762 89.1009 77.2405 93.5244 78.0894 97.792C78.9382 102.06 81.0335 105.98 84.1103 109.056C87.187 112.133 91.1071 114.228 95.3747 115.077C99.6422 115.926 104.066 115.49 108.086 113.825C112.106 112.16 115.542 109.34 117.959 105.723C120.376 102.105 121.667 97.8512 121.667 93.5C121.667 87.6652 119.349 82.0695 115.223 77.9437C111.097 73.8178 105.501 71.5 99.6666 71.5ZM108.467 90.86L99.3366 100.045C98.7988 100.544 98.0906 100.82 97.3566 100.815C96.6391 100.819 95.9483 100.543 95.4316 100.045L90.8666 95.425C90.3646 94.9127 90.085 94.223 90.0886 93.5057C90.0922 92.7884 90.3788 92.1015 90.886 91.5943C91.3932 91.0871 92.0801 90.8006 92.7973 90.797C93.5146 90.7934 94.2043 91.0729 94.7166 91.575L97.3566 94.215L104.617 86.955C105.131 86.4511 105.822 86.1689 106.542 86.1689C107.261 86.1689 107.953 86.4511 108.467 86.955C108.724 87.2107 108.929 87.5148 109.069 87.8499C109.208 88.185 109.28 88.5445 109.28 88.9075C109.28 89.2705 109.208 89.63 109.069 89.9651C108.929 90.3002 108.724 90.6044 108.467 90.86Z" fill="#DCD9E5"/>
<path opacity="0.4" d="M110.667 49.5V62.975C110.667 63.1964 110.622 63.4155 110.536 63.6194C110.45 63.8233 110.323 64.0077 110.164 64.1616C110.005 64.3156 109.817 64.4359 109.61 64.5155C109.403 64.5952 109.183 64.6324 108.962 64.625C108.738 64.6153 108.516 64.5784 108.302 64.515C105.501 63.672 102.591 63.2458 99.6666 63.25C91.6483 63.2645 83.9625 66.4563 78.2927 72.1261C72.6229 77.7959 69.4312 85.4817 69.4166 93.5C69.4077 94.7684 69.4811 96.0361 69.6366 97.295C69.6337 97.7463 69.4532 98.1783 69.1341 98.4974C68.8149 98.8166 68.3829 98.9971 67.9316 99H28.1666C25.9253 99.3198 23.6404 99.1134 21.4927 98.3973C19.3449 97.6812 17.3934 96.475 15.7925 94.8741C14.1917 93.2732 12.9854 91.3217 12.2693 89.174C11.5532 87.0262 11.3468 84.7413 11.6666 82.5V49.5H110.667Z" fill="#DCD9E5"/>
</svg>
