<svg width="133" height="132" viewBox="0 0 133 132" fill="none" xmlns="http://www.w3.org/2000/svg">
<path opacity="0.4" d="M66.5 121C96.8757 121 121.5 96.3757 121.5 66C121.5 35.6243 96.8757 11 66.5 11C36.1243 11 11.5 35.6243 11.5 66C11.5 96.3757 36.1243 121 66.5 121Z" fill="#DCD9E5"/>
<path d="M60.0814 82.9565C58.9886 82.9564 57.9405 82.5233 57.1664 81.752L44.3349 68.915C43.6062 68.1331 43.2096 67.0988 43.2284 66.0302C43.2473 64.9615 43.6802 63.9419 44.436 63.1861C45.1917 62.4304 46.2114 61.9974 47.28 61.9786C48.3487 61.9597 49.3829 62.3564 50.1649 63.085L60.0649 72.985L82.8349 50.248C83.6109 49.4749 84.6623 49.0418 85.7577 49.0438C86.8531 49.0459 87.9028 49.483 88.6759 50.259C89.449 51.0351 89.8822 52.0864 89.8801 53.1818C89.878 54.2772 89.4409 55.3269 88.6649 56.1L63.0019 81.7685C62.2238 82.5351 61.1737 82.9623 60.0814 82.9565Z" fill="#DCD9E5"/>
</svg>
