<svg width="132" height="132" viewBox="0 0 132 132" fill="none" xmlns="http://www.w3.org/2000/svg">
<path opacity="0.4" d="M27.225 94.666C20.1062 86.8396 16.2666 76.5771 16.5 66C16.5 38.5 38.665 22 66 22C93.335 22 115.5 38.5 115.5 66C115.5 93.5 93.335 110 66 110C59.2868 110.041 52.6137 108.963 46.255 106.81C38.885 114.675 26.84 115.72 19.03 115.445C18.5038 115.421 17.9969 115.24 17.575 114.925C17.153 114.609 16.8355 114.175 16.6636 113.677C16.4918 113.179 16.4734 112.641 16.6109 112.132C16.7484 111.624 17.0355 111.168 17.435 110.825C22.5887 106.839 26.0777 101.08 27.225 94.666Z" fill="#DCD9E5"/>
<path d="M66.11 55C65.3877 55.0036 64.6718 54.8649 64.0031 54.5919C63.3345 54.3188 62.7261 53.9167 62.2128 53.4085C61.1762 52.3822 60.5898 50.9862 60.5825 49.5275C60.5752 48.0688 61.1477 46.667 62.174 45.6304C63.2002 44.5938 64.5963 44.0073 66.055 44H66.11C67.5687 44 68.9676 44.5795 69.9991 45.6109C71.0305 46.6424 71.61 48.0413 71.61 49.5C71.61 50.9587 71.0305 52.3576 69.9991 53.3891C68.9676 54.4205 67.5687 55 66.11 55ZM70.125 82.5V66C70.125 64.906 69.6904 63.8568 68.9168 63.0832C68.1432 62.3096 67.094 61.875 66 61.875C64.906 61.875 63.8568 62.3096 63.0832 63.0832C62.3096 63.8568 61.875 64.906 61.875 66V82.5C61.875 83.594 62.3096 84.6432 63.0832 85.4168C63.8568 86.1904 64.906 86.625 66 86.625C67.094 86.625 68.1432 86.1904 68.9168 85.4168C69.6904 84.6432 70.125 83.594 70.125 82.5Z" fill="#DCD9E5"/>
</svg>
