<svg width="133" height="132" viewBox="0 0 133 132" fill="none" xmlns="http://www.w3.org/2000/svg">
<path opacity="0.4" d="M66.5 121C96.8757 121 121.5 96.3757 121.5 66C121.5 35.6243 96.8757 11 66.5 11C36.1243 11 11.5 35.6243 11.5 66C11.5 96.3757 36.1243 121 66.5 121Z" fill="#DCD9E5"/>
<path d="M72.3356 66L85.9151 52.415C86.6438 51.633 87.0404 50.5988 87.0216 49.5301C87.0027 48.4615 86.5698 47.4419 85.814 46.6861C85.0583 45.9303 84.0386 45.4974 82.97 45.4785C81.9013 45.4597 80.8671 45.8564 80.0851 46.585L66.5001 60.1645L52.9151 46.585C52.1332 45.8564 51.0989 45.4597 50.0302 45.4785C48.9616 45.4974 47.942 45.9303 47.1862 46.6861C46.4304 47.4419 45.9975 48.4615 45.9786 49.5301C45.9598 50.5988 46.3565 51.633 47.0851 52.415L60.6646 66L47.0851 79.585C46.6798 79.9627 46.3548 80.4181 46.1293 80.9241C45.9039 81.4301 45.7826 81.9763 45.7729 82.5301C45.7631 83.084 45.865 83.6342 46.0724 84.1478C46.2799 84.6614 46.5887 85.128 46.9804 85.5197C47.3721 85.9114 47.8387 86.2202 48.3523 86.4277C48.866 86.6352 49.4161 86.737 49.97 86.7273C50.5239 86.7175 51.0701 86.5963 51.5761 86.3708C52.0821 86.1454 52.5375 85.8203 52.9151 85.415L66.5001 71.8355L80.0851 85.415C80.8671 86.1437 81.9013 86.5403 82.97 86.5215C84.0386 86.5026 85.0583 86.0697 85.814 85.3139C86.5698 84.5582 87.0027 83.5385 87.0216 82.4699C87.0404 81.4012 86.6438 80.367 85.9151 79.585L72.3356 66Z" fill="#DCD9E5"/>
</svg>
