<svg width="133" height="132" viewBox="0 0 133 132" fill="none" xmlns="http://www.w3.org/2000/svg">
<path opacity="0.4" d="M99.8334 49.5V68.5575C99.8241 68.9754 99.6565 69.3742 99.3645 69.6733C99.0725 69.9724 98.6779 70.1496 98.2604 70.169C90.9579 70.5574 84.0757 73.7058 79.0068 78.9768C73.9379 84.2479 71.061 91.2479 70.9584 98.56C70.9513 103.661 72.3357 108.668 74.9624 113.042C75.1053 113.296 75.1784 113.583 75.1741 113.875C75.1699 114.166 75.0884 114.451 74.9381 114.701C74.7877 114.951 74.5738 115.157 74.3182 115.297C74.0626 115.437 73.7744 115.507 73.4829 115.5H33.8334C31.5921 115.82 29.3072 115.613 27.1594 114.897C25.0117 114.181 23.0601 112.975 21.4593 111.374C19.8584 109.773 18.6522 107.822 17.936 105.674C17.2199 103.526 17.0136 101.241 17.3334 99V33C17.0136 30.7587 17.2199 28.4738 17.936 26.326C18.6522 24.1783 19.8584 22.2268 21.4593 20.6259C23.0601 19.025 25.0117 17.8188 27.1594 17.1027C29.3072 16.3866 31.5921 16.1802 33.8334 16.5H66.8334V33C66.8334 37.3761 68.5718 41.5729 71.6661 44.6673C74.7605 47.7616 78.9573 49.5 83.3334 49.5H99.8334Z" fill="#DCD9E5"/>
<path d="M83.3334 49.5H99.8334L66.8334 16.5V33C66.5136 35.2413 66.7199 37.5262 67.436 39.674C68.1522 41.8217 69.3584 43.7732 70.9593 45.3741C72.5601 46.975 74.5117 48.1812 76.6594 48.8973C78.8072 49.6134 81.0921 49.8198 83.3334 49.5Z" fill="#DCD9E5"/>
<path d="M43.4584 66C43.4584 66.8158 43.2165 67.6134 42.7632 68.2917C42.3099 68.9701 41.6657 69.4988 40.9119 69.811C40.1582 70.1232 39.3288 70.2049 38.5286 70.0457C37.7285 69.8866 36.9935 69.4937 36.4166 68.9168C35.8397 68.3399 35.4468 67.6049 35.2876 66.8047C35.1285 66.0046 35.2102 65.1752 35.5224 64.4214C35.8346 63.6677 36.3633 63.0235 37.0417 62.5702C37.72 62.1169 38.5175 61.875 39.3334 61.875C40.4274 61.875 41.4766 62.3096 42.2502 63.0832C43.0238 63.8568 43.4584 64.906 43.4584 66ZM39.3334 83.875C38.5175 83.875 37.72 84.1169 37.0417 84.5702C36.3633 85.0235 35.8346 85.6677 35.5224 86.4214C35.2102 87.1752 35.1285 88.0046 35.2876 88.8048C35.4468 89.6049 35.8397 90.3399 36.4166 90.9168C36.9935 91.4937 37.7285 91.8866 38.5286 92.0457C39.3288 92.2049 40.1582 92.1232 40.9119 91.811C41.6657 91.4988 42.3099 90.9701 42.7632 90.2917C43.2165 89.6134 43.4584 88.8158 43.4584 88C43.4584 86.906 43.0238 85.8568 42.2502 85.0832C41.4766 84.3096 40.4274 83.875 39.3334 83.875ZM81.9584 66C81.9584 64.906 81.5238 63.8568 80.7502 63.0832C79.9766 62.3096 78.9274 61.875 77.8334 61.875H53.0834C51.9894 61.875 50.9402 62.3096 50.1666 63.0832C49.393 63.8568 48.9584 64.906 48.9584 66C48.9584 67.094 49.393 68.1432 50.1666 68.9168C50.9402 69.6904 51.9894 70.125 53.0834 70.125H77.8334C78.9274 70.125 79.9766 69.6904 80.7502 68.9168C81.5238 68.1432 81.9584 67.094 81.9584 66ZM65.4584 88C65.4584 86.906 65.0238 85.8568 64.2502 85.0832C63.4766 84.3096 62.4274 83.875 61.3334 83.875H53.0834C51.9894 83.875 50.9402 84.3096 50.1666 85.0832C49.393 85.8568 48.9584 86.906 48.9584 88C48.9584 89.094 49.393 90.1432 50.1666 90.9168C50.9402 91.6904 51.9894 92.125 53.0834 92.125H61.3334C62.4274 92.125 63.4766 91.6904 64.2502 90.9168C65.0238 90.1432 65.4584 89.094 65.4584 88Z" fill="#DCD9E5"/>
<path d="M124.748 118.085L116.223 109.56C118.376 106.295 119.524 102.471 119.523 98.56C119.541 94.0523 118.052 89.6678 115.295 86.1018C112.538 82.5358 108.669 79.9924 104.302 78.8748C99.9345 77.7572 95.3193 78.1294 91.1879 79.9324C87.0564 81.7355 83.6451 84.8661 81.4948 88.8279C79.3445 92.7898 78.5783 97.3561 79.3177 101.803C80.057 106.249 82.2597 110.322 85.5764 113.375C88.8931 116.428 93.134 118.286 97.6266 118.655C102.119 119.024 106.606 117.883 110.377 115.412L118.902 123.931C119.684 124.66 120.718 125.057 121.787 125.038C122.855 125.019 123.875 124.586 124.631 123.83C125.387 123.075 125.819 122.055 125.838 120.986C125.857 119.918 125.461 118.883 124.732 118.101L124.748 118.085ZM87.4584 98.5435C87.4573 96.186 88.1554 93.8811 89.4643 91.9204C90.7733 89.9597 92.6343 88.4312 94.812 87.5283C96.9898 86.6254 99.3864 86.3886 101.699 86.8478C104.011 87.3071 106.135 88.4418 107.803 90.1084C109.47 91.775 110.606 93.8987 111.066 96.2108C111.526 98.5229 111.291 100.92 110.389 103.098C109.487 105.276 107.959 107.138 105.999 108.447C104.039 109.757 101.734 110.456 99.3769 110.456C96.2177 110.454 93.1887 109.198 90.9544 106.964C88.72 104.731 87.4627 101.703 87.4584 98.5435Z" fill="#DCD9E5"/>
</svg>
