<svg width="133" height="132" viewBox="0 0 133 132" fill="none" xmlns="http://www.w3.org/2000/svg">
<path opacity="0.4" d="M99.1667 44V67.1825C99.1559 67.6003 98.987 67.9985 98.694 68.2966C98.401 68.5947 98.0058 68.7705 97.5882 68.7885C89.8538 69.2073 82.5733 72.5712 77.2414 78.1896C71.9094 83.8079 68.9307 91.2543 68.9167 99C68.9077 101.982 69.349 104.949 70.2257 107.8C70.3133 108.048 70.3404 108.313 70.305 108.573C70.2695 108.833 70.1724 109.081 70.0218 109.296C69.8712 109.511 69.6714 109.688 69.439 109.81C69.2066 109.932 68.9483 109.998 68.6857 110H33.1667C30.9254 110.32 28.6405 110.113 26.4927 109.397C24.345 108.681 22.3935 107.475 20.7926 105.874C19.1917 104.273 17.9855 102.322 17.2694 100.174C16.5532 98.0262 16.3469 95.7413 16.6667 93.5V27.5C16.3469 25.2587 16.5532 22.9738 17.2694 20.826C17.9855 18.6783 19.1917 16.7268 20.7926 15.1259C22.3935 13.525 24.345 12.3188 26.4927 11.6027C28.6405 10.8866 30.9254 10.6802 33.1667 11H66.1667V27.5C66.1667 31.8761 67.9051 36.0729 70.9994 39.1673C74.0938 42.2616 78.2906 44 82.6667 44H99.1667Z" fill="#DCD9E5"/>
<path d="M82.6667 44H99.1667L66.1667 11V27.5C65.8469 29.7413 66.0532 32.0262 66.7694 34.174C67.4855 36.3217 68.6917 38.2732 70.2926 39.8741C71.8935 41.475 73.845 42.6812 75.9927 43.3973C78.1405 44.1134 80.4254 44.3198 82.6667 44Z" fill="#DCD9E5"/>
<path d="M77.1667 64.625H38.6667C37.5727 64.625 36.5235 64.1904 35.7499 63.4168C34.9763 62.6432 34.5417 61.594 34.5417 60.5C34.5417 59.406 34.9763 58.3568 35.7499 57.5832C36.5235 56.8096 37.5727 56.375 38.6667 56.375H77.1667C78.2607 56.375 79.3099 56.8096 80.0835 57.5832C80.8571 58.3568 81.2917 59.406 81.2917 60.5C81.2917 61.594 80.8571 62.6432 80.0835 63.4168C79.3099 64.1904 78.2607 64.625 77.1667 64.625ZM64.7917 82.5C64.7917 81.406 64.3571 80.3568 63.5835 79.5832C62.8099 78.8096 61.7607 78.375 60.6667 78.375H38.6667C37.5727 78.375 36.5235 78.8096 35.7499 79.5832C34.9763 80.3568 34.5417 81.406 34.5417 82.5C34.5417 83.594 34.9763 84.6432 35.7499 85.4168C36.5235 86.1904 37.5727 86.625 38.6667 86.625H60.6667C61.7607 86.625 62.8099 86.1904 63.5835 85.4168C64.3571 84.6432 64.7917 83.594 64.7917 82.5Z" fill="#DCD9E5"/>
<path d="M99.1667 77C94.8155 77 90.562 78.2903 86.9442 80.7077C83.3263 83.1251 80.5065 86.561 78.8413 90.581C77.1762 94.6009 76.7405 99.0244 77.5894 103.292C78.4383 107.56 80.5336 111.48 83.6103 114.556C86.6871 117.633 90.6071 119.728 94.8747 120.577C99.1423 121.426 103.566 120.99 107.586 119.325C111.606 117.66 115.042 114.84 117.459 111.223C119.876 107.605 121.167 103.351 121.167 99C121.167 93.1652 118.849 87.5695 114.723 83.4436C110.597 79.3178 105.001 77 99.1667 77ZM107.967 96.36L98.7982 105.529C98.5428 105.785 98.2393 105.988 97.9052 106.126C97.5711 106.265 97.2129 106.336 96.8512 106.336C96.4895 106.336 96.1313 106.265 95.7972 106.126C95.4631 105.988 95.1597 105.785 94.9042 105.529L90.3227 100.947C90.067 100.691 89.8642 100.388 89.7258 100.054C89.5874 99.7196 89.5162 99.3616 89.5162 99C89.5162 98.6384 89.5874 98.2804 89.7258 97.9463C89.8642 97.6122 90.067 97.3087 90.3227 97.053C90.5784 96.7973 90.8819 96.5945 91.216 96.4561C91.5501 96.3178 91.9081 96.2465 92.2697 96.2465C92.6313 96.2465 92.9893 96.3178 93.3234 96.4561C93.6575 96.5945 93.961 96.7973 94.2167 97.053L96.8512 99.693L104.117 92.4715C104.632 91.9551 105.332 91.6647 106.062 91.6642C106.792 91.6637 107.492 91.9531 108.008 92.4688C108.524 92.9844 108.815 93.6841 108.815 94.4138C108.816 95.1436 108.526 95.8436 108.011 96.36H107.967Z" fill="#DCD9E5"/>
</svg>
