<svg width="133" height="132" viewBox="0 0 133 132" fill="none" xmlns="http://www.w3.org/2000/svg">
<path opacity="0.4" d="M94 49.5C91.7587 49.8198 89.4738 49.6134 87.3261 48.8973C85.1783 48.1812 83.2268 46.975 81.6259 45.3741C80.025 43.7732 78.8188 41.8217 78.1027 39.6739C77.3866 37.5262 77.1802 35.2413 77.5 33V16.5H44.5C42.2587 16.1802 39.9738 16.3866 37.826 17.1027C35.6783 17.8188 33.7268 19.025 32.1259 20.6259C30.525 22.2268 29.3188 24.1783 28.6027 26.326C27.8866 28.4738 27.6802 30.7587 28 33V99C27.6802 101.241 27.8866 103.526 28.6027 105.674C29.3188 107.822 30.525 109.773 32.1259 111.374C33.7268 112.975 35.6783 114.181 37.826 114.897C39.9738 115.613 42.2587 115.82 44.5 115.5H94C96.2413 115.82 98.5262 115.613 100.674 114.897C102.822 114.181 104.773 112.975 106.374 111.374C107.975 109.773 109.181 107.822 109.897 105.674C110.613 103.526 110.82 101.241 110.5 99V49.5H94Z" fill="#DCD9E5"/>
<path d="M94 49.5H110.5L77.5 16.5V33C77.1802 35.2413 77.3866 37.5262 78.1027 39.674C78.8188 41.8217 80.025 43.7732 81.6259 45.3741C83.2268 46.975 85.1783 48.1812 87.3261 48.8973C89.4738 49.6134 91.7587 49.8198 94 49.5Z" fill="#DCD9E5"/>
</svg>
