<svg width="133" height="132" viewBox="0 0 133 132" fill="none" xmlns="http://www.w3.org/2000/svg">
<path opacity="0.4" d="M99.5 44V67.1825C99.4893 67.6003 99.3203 67.9985 99.0273 68.2966C98.7343 68.5947 98.3391 68.7705 97.9215 68.7885C90.1872 69.2073 82.9066 72.5712 77.5747 78.1896C72.2427 83.8079 69.264 91.2543 69.25 99C69.241 101.982 69.6823 104.949 70.559 107.8C70.6466 108.048 70.6738 108.313 70.6383 108.573C70.6028 108.833 70.5058 109.081 70.3551 109.296C70.2045 109.511 70.0047 109.688 69.7723 109.81C69.5399 109.932 69.2817 109.998 69.019 110H33.5C31.2587 110.32 28.9738 110.113 26.8261 109.397C24.6783 108.681 22.7268 107.475 21.1259 105.874C19.525 104.273 18.3188 102.322 17.6027 100.174C16.8866 98.0262 16.6802 95.7413 17 93.5V27.5C16.6802 25.2587 16.8866 22.9738 17.6027 20.826C18.3188 18.6783 19.525 16.7268 21.1259 15.1259C22.7268 13.525 24.6783 12.3188 26.8261 11.6027C28.9738 10.8866 31.2587 10.6802 33.5 11H66.5V27.5C66.5 31.8761 68.2384 36.0729 71.3328 39.1673C74.4271 42.2616 78.6239 44 83 44H99.5Z" fill="#DCD9E5"/>
<path d="M83 44H99.5L66.5 11V27.5C66.1802 29.7413 66.3866 32.0262 67.1027 34.174C67.8188 36.3217 69.0251 38.2732 70.6259 39.8741C72.2268 41.475 74.1783 42.6812 76.3261 43.3973C78.4738 44.1134 80.7587 44.3198 83 44Z" fill="#DCD9E5"/>
<path d="M43.125 60.5C43.125 61.3158 42.8831 62.1134 42.4298 62.7917C41.9766 63.4701 41.3323 63.9988 40.5786 64.311C39.8248 64.6232 38.9954 64.7049 38.1953 64.5457C37.3951 64.3866 36.6601 63.9937 36.0832 63.4168C35.5063 62.8399 35.1134 62.1049 34.9543 61.3047C34.7951 60.5046 34.8768 59.6752 35.189 58.9214C35.5012 58.1677 36.0299 57.5235 36.7083 57.0702C37.3866 56.6169 38.1842 56.375 39 56.375C40.094 56.375 41.1432 56.8096 41.9168 57.5832C42.6904 58.3568 43.125 59.406 43.125 60.5ZM39 78.375C38.1842 78.375 37.3866 78.6169 36.7083 79.0702C36.0299 79.5235 35.5012 80.1677 35.189 80.9214C34.8768 81.6752 34.7951 82.5046 34.9543 83.3047C35.1134 84.1049 35.5063 84.8399 36.0832 85.4168C36.6601 85.9937 37.3951 86.3866 38.1953 86.5457C38.9954 86.7049 39.8248 86.6232 40.5786 86.311C41.3323 85.9988 41.9766 85.4701 42.4298 84.7917C42.8831 84.1134 43.125 83.3158 43.125 82.5C43.125 81.406 42.6904 80.3568 41.9168 79.5832C41.1432 78.8096 40.094 78.375 39 78.375ZM81.625 60.5C81.625 59.406 81.1904 58.3568 80.4168 57.5832C79.6432 56.8096 78.594 56.375 77.5 56.375H52.75C51.656 56.375 50.6068 56.8096 49.8332 57.5832C49.0596 58.3568 48.625 59.406 48.625 60.5C48.625 61.594 49.0596 62.6432 49.8332 63.4168C50.6068 64.1904 51.656 64.625 52.75 64.625H77.5C78.594 64.625 79.6432 64.1904 80.4168 63.4168C81.1904 62.6432 81.625 61.594 81.625 60.5ZM65.125 82.5C65.125 81.406 64.6904 80.3568 63.9168 79.5832C63.1432 78.8096 62.094 78.375 61 78.375H52.75C51.656 78.375 50.6068 78.8096 49.8332 79.5832C49.0596 80.3568 48.625 81.406 48.625 82.5C48.625 83.594 49.0596 84.6432 49.8332 85.4168C50.6068 86.1904 51.656 86.625 52.75 86.625H61C62.094 86.625 63.1432 86.1904 63.9168 85.4168C64.6904 84.6432 65.125 83.594 65.125 82.5Z" fill="#DCD9E5"/>
<path d="M99.5 77C95.1488 77 90.8954 78.2903 87.2775 80.7077C83.6596 83.1251 80.8398 86.561 79.1747 90.581C77.5095 94.6009 77.0739 99.0244 77.9227 103.292C78.7716 107.56 80.8669 111.48 83.9437 114.556C87.0204 117.633 90.9404 119.728 95.208 120.577C99.4756 121.426 103.899 120.99 107.919 119.325C111.939 117.66 115.375 114.84 117.792 111.223C120.21 107.605 121.5 103.351 121.5 99C121.5 93.1652 119.182 87.5695 115.056 83.4436C110.931 79.3178 105.335 77 99.5 77ZM106.375 101.75H102.25V105.875C102.25 106.604 101.96 107.304 101.445 107.82C100.929 108.335 100.229 108.625 99.5 108.625C98.7707 108.625 98.0712 108.335 97.5555 107.82C97.0397 107.304 96.75 106.604 96.75 105.875V101.75H92.625C91.8957 101.75 91.1962 101.46 90.6805 100.945C90.1647 100.429 89.875 99.7293 89.875 99C89.875 98.2707 90.1647 97.5712 90.6805 97.0555C91.1962 96.5397 91.8957 96.25 92.625 96.25H96.75V92.125C96.75 91.3957 97.0397 90.6962 97.5555 90.1805C98.0712 89.6647 98.7707 89.375 99.5 89.375C100.229 89.375 100.929 89.6647 101.445 90.1805C101.96 90.6962 102.25 91.3957 102.25 92.125V96.25H106.375C107.104 96.25 107.804 96.5397 108.32 97.0555C108.835 97.5712 109.125 98.2707 109.125 99C109.125 99.7293 108.835 100.429 108.32 100.945C107.804 101.46 107.104 101.75 106.375 101.75Z" fill="#DCD9E5"/>
</svg>
