<svg width="132" height="132" viewBox="0 0 132 132" fill="none" xmlns="http://www.w3.org/2000/svg">
<path opacity="0.4" d="M97.1685 11H34.8315C22.6105 11 16.5 17.1105 16.5 29.3315V84.3315C16.5 96.5598 22.6105 102.672 34.8315 102.669H43.0815C44.5047 102.668 45.9084 102.999 47.1818 103.635C48.4551 104.271 49.5632 105.194 50.4185 106.331L58.6685 117.331C59.5219 118.47 60.6288 119.394 61.9013 120.03C63.1739 120.667 64.5772 120.998 66 120.998C67.4228 120.998 68.8261 120.667 70.0986 120.03C71.3712 119.394 72.478 118.47 73.3315 117.331L81.5815 106.331C82.4368 105.194 83.5449 104.271 84.8182 103.635C86.0915 102.999 87.4953 102.668 88.9185 102.669H97.1685C109.389 102.669 115.5 96.5562 115.5 84.3315V29.3315C115.5 17.1105 109.389 11 97.1685 11Z" fill="#DCD9E5"/>
<path d="M91.773 57.486C88.3575 75.086 66.0605 85.25 66.0605 85.25C66.0605 85.25 43.7635 75.1025 40.348 57.486C38.2525 46.6785 42.8285 35.805 54.45 35.75C57.0306 35.8715 59.515 36.7662 61.5806 38.3178C63.6462 39.8695 65.1975 42.0064 66.033 44.451C66.8702 42.0022 68.4257 39.8623 70.4966 38.3103C72.5676 36.7583 75.0581 35.8661 77.6435 35.75C89.3145 35.805 93.8685 46.6785 91.773 57.486Z" fill="#DCD9E5"/>
</svg>
