<svg width="133" height="132" viewBox="0 0 133 132" fill="none" xmlns="http://www.w3.org/2000/svg">
<path d="M123.709 41.855L117.109 89.045C115.679 98.945 110.234 104.17 101.269 104.17C100.554 104.17 99.7835 104.115 99.0135 104.06C99.1726 102.986 99.2462 101.901 99.2335 100.815V53.13C99.5188 51.1424 99.337 49.1157 98.7026 47.2106C98.0683 45.3055 96.9988 43.5744 95.5789 42.1546C94.1591 40.7347 92.428 39.6652 90.5229 39.0309C88.6178 38.3965 86.5911 38.2148 84.6035 38.5H29.7685C29.7685 38.39 29.8235 38.225 29.8235 38.115L31.1435 28.875C31.3161 26.521 31.9544 24.2248 33.0212 22.1193C34.0881 20.0139 35.5624 18.1413 37.3585 16.61C39.327 15.3134 41.5319 14.4178 43.8469 13.9742C46.1619 13.5306 48.5417 13.5479 50.85 14.025L108.93 22.165C111.278 22.3531 113.566 23.004 115.661 24.0801C117.757 25.1562 119.619 26.6362 121.14 28.435C122.456 30.3807 123.362 32.5738 123.804 34.8809C124.246 37.188 124.213 39.5608 123.709 41.855Z" fill="#DCD9E5"/>
<path opacity="0.4" d="M84.5925 38.5H25.9185C23.9269 38.2154 21.8964 38.3982 19.9877 39.034C18.079 39.6697 16.3445 40.741 14.9213 42.1631C13.4982 43.5851 12.4256 45.3189 11.7884 47.2271C11.1512 49.1353 10.9669 51.1657 11.25 53.1575V100.831C10.965 102.824 11.1479 104.856 11.7843 106.765C12.4206 108.675 13.493 110.41 14.9163 111.834C16.3397 113.257 18.0749 114.329 19.9846 114.966C21.8942 115.602 23.9259 115.785 25.9185 115.5H84.5925C86.5841 115.782 88.6139 115.597 90.5216 114.959C92.4293 114.322 94.1626 113.249 95.5843 111.826C97.0061 110.403 98.0774 108.669 98.7136 106.761C99.3498 104.853 99.5334 102.823 99.25 100.831V53.1575C99.5315 51.167 99.3465 49.1382 98.7095 47.2315C98.0724 45.3248 97.0008 43.5922 95.5793 42.1707C94.1578 40.7492 92.4252 39.6776 90.5185 39.0405C88.6118 38.4035 86.583 38.2184 84.5925 38.5Z" fill="#DCD9E5"/>
<path d="M90.516 82.346L73.4 65.175C72.4707 64.2758 71.2282 63.7731 69.935 63.7731C68.6418 63.7731 67.3993 64.2758 66.47 65.175L42.325 89.32C41.8644 89.7774 41.2416 90.0342 40.5925 90.0342C39.9434 90.0342 39.3206 89.7774 38.86 89.32L34.295 84.755C33.8414 84.2974 33.3017 83.9341 32.707 83.6862C32.1123 83.4383 31.4743 83.3107 30.83 83.3107C30.1857 83.3107 29.5477 83.4383 28.953 83.6862C28.3583 83.9341 27.8186 84.2974 27.365 84.755L19.984 92.136C19.6745 92.4451 19.5004 92.8645 19.5 93.302V100.815C19.5 106.04 20.71 107.25 25.935 107.25H84.62C89.79 107.25 91 106.04 91 100.815V83.512C90.9996 83.0745 90.8255 82.6551 90.516 82.346Z" fill="#DCD9E5"/>
<path d="M36 68.75C34.5413 68.7558 33.1401 68.182 32.1045 67.1546C31.0689 66.1273 30.4838 64.7307 30.478 63.272C30.4722 61.8133 31.046 60.412 32.0734 59.3765C33.1007 58.3409 34.4973 57.7558 35.956 57.75H36C37.4587 57.75 38.8576 58.3295 39.8891 59.3609C40.9205 60.3924 41.5 61.7913 41.5 63.25C41.5 64.7087 40.9205 66.1076 39.8891 67.1391C38.8576 68.1705 37.4587 68.75 36 68.75Z" fill="#DCD9E5"/>
</svg>
