<svg width="133" height="132" viewBox="0 0 133 132" fill="none" xmlns="http://www.w3.org/2000/svg">
<path opacity="0.4" d="M120.375 48.851V93.5C120.7 96.2871 120.39 99.1116 119.469 101.762C118.547 104.412 117.038 106.82 115.054 108.804C113.07 110.788 110.662 112.297 108.012 113.219C105.362 114.14 102.537 114.45 99.75 114.125H33.75C30.9629 114.45 28.1384 114.14 25.4881 113.219C22.8378 112.297 20.4303 110.788 18.4462 108.804C16.4621 106.82 14.9527 104.412 14.0312 101.762C13.1097 99.1116 12.7998 96.2871 13.125 93.5V38.5C12.7998 35.7129 13.1097 32.8884 14.0312 30.2381C14.9527 27.5878 16.4621 25.1803 18.4462 23.1962C20.4303 21.2121 22.8378 19.7027 25.4881 18.7812C28.1384 17.8597 30.9629 17.5498 33.75 17.875H82.15C82.3934 17.8814 82.6323 17.9415 82.8497 18.0511C83.0671 18.1607 83.2575 18.3171 83.4073 18.509C83.5572 18.7008 83.6627 18.9235 83.7163 19.161C83.7699 19.3984 83.7703 19.6448 83.7175 19.8825C82.4198 26.3089 83.7249 32.9876 87.3463 38.4527C90.9677 43.9178 96.6096 47.7228 103.033 49.0325C108.118 50.0489 113.393 49.4429 118.114 47.3C118.366 47.1997 118.639 47.163 118.908 47.193C119.177 47.2231 119.435 47.319 119.659 47.4723C119.882 47.6256 120.064 47.8316 120.189 48.0721C120.314 48.3125 120.378 48.58 120.375 48.851Z" fill="#DCD9E5"/>
<path d="M111.641 77.891L87.155 53.405C86.118 52.3719 84.7138 51.7918 83.25 51.7918C81.7862 51.7918 80.382 52.3719 79.345 53.405L52.175 80.575C51.6609 81.0789 50.9698 81.3611 50.25 81.3611C49.5302 81.3611 48.8391 81.0789 48.325 80.575L43.155 75.405C42.118 74.3719 40.7138 73.7918 39.25 73.7918C37.7862 73.7918 36.382 74.3719 35.345 75.405L21.859 88.891C21.5495 89.2001 21.3754 89.6195 21.375 90.057V93.5C21.375 102.19 25.06 105.875 33.75 105.875H99.75C108.44 105.875 112.125 102.19 112.125 93.5V79.057C112.125 78.6195 111.951 78.2001 111.641 77.891Z" fill="#DCD9E5"/>
<path d="M44.75 56.375C43.8471 56.3783 42.9525 56.2036 42.1172 55.8611C41.2818 55.5186 40.5221 55.015 39.8814 54.3789C38.5874 53.0942 37.8568 51.3481 37.8502 49.5248C37.8437 47.7014 38.5617 45.9501 39.8464 44.6561C41.131 43.3622 42.8771 42.6316 44.7005 42.625H44.75C46.5733 42.625 48.322 43.3493 49.6113 44.6386C50.9007 45.928 51.625 47.6766 51.625 49.5C51.625 51.3234 50.9007 53.072 49.6113 54.3614C48.322 55.6507 46.5733 56.375 44.75 56.375Z" fill="#DCD9E5"/>
<path d="M101.581 40.7935C101.04 40.7936 100.504 40.6868 100.003 40.4791C99.5031 40.2715 99.0488 39.9671 98.6665 39.5835L91.335 32.252C90.559 31.4789 90.1218 30.4292 90.1198 29.3338C90.1177 28.2384 90.5509 27.187 91.324 26.411C92.0971 25.635 93.1468 25.1978 94.2422 25.1958C95.3376 25.1937 96.389 25.6269 97.165 26.4L101.565 30.8L113.335 19.085C113.713 18.6797 114.168 18.3547 114.674 18.1292C115.18 17.9037 115.726 17.7825 116.28 17.7727C116.834 17.763 117.384 17.8648 117.898 18.0723C118.411 18.2798 118.878 18.5886 119.27 18.9803C119.661 19.372 119.97 19.8386 120.178 20.3522C120.385 20.8658 120.487 21.416 120.477 21.9699C120.467 22.5237 120.346 23.07 120.121 23.576C119.895 24.0819 119.57 24.5374 119.165 24.915L104.496 39.6C104.113 39.9807 103.658 40.282 103.158 40.4868C102.658 40.6916 102.122 40.7958 101.581 40.7935Z" fill="#DCD9E5"/>
</svg>
