<svg width="133" height="132" viewBox="0 0 133 132" fill="none" xmlns="http://www.w3.org/2000/svg">
<path d="M55.181 95.7383C43.147 93.6153 38.197 86.535 40.331 74.4973L47.6955 32.6093V32.5708L26.856 36.2393C14.8183 38.377 9.86833 45.4665 12.006 57.5078L20.5035 105.666C22.5752 117.707 29.6427 122.657 41.706 120.516L77.8245 114.158C86.2615 112.634 91.272 108.658 92.614 102.305L92.5755 102.239C92.1465 102.179 91.756 102.179 91.316 102.102L55.181 95.7383Z" fill="#DCD9E5"/>
<path opacity="0.4" d="M106.149 17.8419L70.042 11.4784C58.0043 9.35541 50.924 14.3054 48.801 26.3284L47.701 32.5874L40.309 74.4974C38.1897 86.5351 43.1397 93.6154 55.159 95.7384L91.272 102.102C91.712 102.179 92.1025 102.179 92.5315 102.239C103.773 103.785 110.467 98.8239 112.513 87.2299L121 39.0829C123.137 27.0489 118.187 19.9686 106.149 17.8419Z" fill="#DCD9E5"/>
</svg>
