<svg width="133" height="132" viewBox="0 0 133 132" fill="none" xmlns="http://www.w3.org/2000/svg">
<path d="M40.7803 91.5419C38.5846 89.2947 35.6046 87.984 32.4643 87.8844C30.8319 87.877 29.2145 88.1968 27.7078 88.825C26.201 89.4532 24.8355 90.377 23.6918 91.5419C19.3578 95.8704 15.0073 111.661 14.1768 114.779C14.066 115.187 14.0508 115.616 14.1324 116.03C14.214 116.445 14.3901 116.836 14.6471 117.171C14.904 117.507 15.235 117.779 15.6141 117.966C15.9933 118.153 16.4105 118.25 16.8333 118.25C17.0541 118.25 17.274 118.222 17.4878 118.167C20.4798 117.436 35.6378 113.569 39.9773 109.219C42.42 106.977 43.8757 103.858 44.0262 100.546C44.1767 97.2337 43.0097 93.9964 40.7803 91.5419Z" fill="#DCD9E5"/>
<path d="M51.2633 37.3452C43.1916 46.8302 37.7992 58.2986 35.6433 70.5652L17.3833 74.1952C17.2037 74.2407 17.0184 74.2592 16.8333 74.2502C16.4317 74.261 16.0331 74.1769 15.67 74.0049C15.3069 73.8329 14.9894 73.5778 14.7433 73.2602C14.4218 72.8769 14.2109 72.4132 14.1333 71.9189C14.0558 71.4246 14.1146 70.9186 14.3033 70.4552L19.5833 57.3102C21.5058 52.4893 24.6439 48.2482 28.692 45.0001C32.7401 41.752 37.5603 39.6074 42.6833 38.7752L51.2633 37.3452Z" fill="#DCD9E5"/>
<path d="M94.9883 81.0698L93.5583 89.6498C92.718 94.7843 90.5648 99.6144 87.3076 103.671C84.0504 107.728 79.7998 110.875 74.9683 112.805L61.8783 118.03C61.5511 118.181 61.1938 118.257 60.8333 118.25C60.1865 118.248 59.5618 118.014 59.0733 117.59C58.6876 117.28 58.3957 116.869 58.2306 116.403C58.0654 115.936 58.0335 115.433 58.1383 114.95L61.7683 96.6898C74.0349 94.534 85.5033 89.1415 94.9883 81.0698Z" fill="#DCD9E5"/>
<path opacity="0.4" d="M115.833 12.375C71.2833 12.375 41.9738 34.155 35.3903 72.1325C35.0682 74.0726 35.2173 76.0618 35.8252 77.9322C36.433 79.8026 37.4817 81.4994 38.8828 82.8795L49.4538 93.456C51.766 95.7843 54.9066 97.1014 58.1878 97.119C58.8626 97.118 59.5361 97.0591 60.2008 96.943C98.1783 90.3595 119.958 61.05 119.958 16.5C119.958 15.406 119.524 14.3568 118.75 13.5832C117.977 12.8096 116.927 12.375 115.833 12.375ZM58.7928 88.825C58.1554 88.9136 57.506 88.8518 56.8967 88.6446C56.2874 88.4373 55.7351 88.0904 55.2838 87.6315L44.7128 77.044C44.2504 76.5965 43.901 76.0454 43.6935 75.4362C43.486 74.827 43.4263 74.1773 43.5193 73.5405C44.8677 63.4451 48.8606 53.8855 55.0933 45.8301C61.326 37.7748 69.5772 31.51 79.0108 27.6705C85.6852 28.079 91.9792 30.9164 96.705 35.6473C101.431 40.3781 104.261 46.6752 104.663 53.35C100.819 62.7785 94.5529 71.024 86.4979 77.2517C78.4428 83.4794 68.8852 87.4681 58.7928 88.814V88.825Z" fill="#DCD9E5"/>
<path d="M74.5833 70.125C81.4178 70.125 86.9583 64.5845 86.9583 57.75C86.9583 50.9155 81.4178 45.375 74.5833 45.375C67.7488 45.375 62.2083 50.9155 62.2083 57.75C62.2083 64.5845 67.7488 70.125 74.5833 70.125Z" fill="#DCD9E5"/>
</svg>
