<svg width="133" height="132" viewBox="0 0 133 132" fill="none" xmlns="http://www.w3.org/2000/svg">
<path opacity="0.4" d="M45.545 99.3795C43.0249 97.9219 40.165 97.1545 37.2537 97.1545C34.3425 97.1545 31.4826 97.9219 28.9625 99.3795C28.7541 99.4998 28.5241 99.5779 28.2856 99.6093C28.047 99.6407 27.8046 99.6248 27.5722 99.5625C27.3398 99.5002 27.122 99.3927 26.9311 99.2462C26.7403 99.0996 26.5802 98.9169 26.46 98.7085L17.2475 82.8135C17.0058 82.3939 16.9401 81.8956 17.0648 81.4276C17.1895 80.9597 17.4945 80.5602 17.913 80.3165H17.968C20.4779 78.8674 22.5618 76.7828 24.0101 74.2725C25.4583 71.7622 26.2199 68.9147 26.218 66.0165C26.2149 63.1194 25.4512 60.2738 24.0034 57.7643C22.5557 55.2549 20.4745 53.1694 17.968 51.7165C17.7611 51.597 17.5798 51.4377 17.4345 51.248C17.2893 51.0582 17.1829 50.8416 17.1216 50.6106C17.0603 50.3796 17.0452 50.1388 17.0772 49.902C17.1092 49.6651 17.1876 49.4369 17.308 49.2305L26.449 33.308C26.6926 32.891 27.0911 32.5871 27.5578 32.4624C28.0244 32.3378 28.5214 32.4025 28.9405 32.6425C31.4621 34.1016 34.3239 34.8699 37.2372 34.8699C40.1506 34.8699 43.0124 34.1016 45.534 32.6425C48.04 31.1918 50.1201 29.1072 51.5653 26.598C53.0106 24.0889 53.7701 21.2436 53.7675 18.348C53.769 17.8574 53.9649 17.3873 54.3123 17.0409C54.6598 16.6945 55.1304 16.5 55.621 16.5H77.379C77.8696 16.5 78.3402 16.6945 78.6877 17.0409C79.0351 17.3873 79.231 17.8574 79.2325 18.348C79.2331 21.2373 79.9924 24.0759 81.4344 26.5796C82.8764 29.0834 84.9506 31.1646 87.4495 32.615C89.9711 34.0741 92.8329 34.8424 95.7462 34.8424C98.6596 34.8424 101.521 34.0741 104.043 32.615C104.462 32.374 104.96 32.3093 105.428 32.4351C105.895 32.5609 106.293 32.8669 106.534 33.286L115.736 49.159C115.976 49.5781 116.041 50.0751 115.916 50.5417C115.791 51.0084 115.488 51.4069 115.07 51.6505H115.026C112.517 53.0996 110.433 55.1842 108.984 57.6945C107.536 60.2048 106.775 63.0524 106.776 65.9505C106.78 68.8477 107.543 71.6932 108.991 74.2027C110.439 76.7122 112.52 78.7976 115.026 80.2505C115.233 80.37 115.415 80.5293 115.56 80.7191C115.705 80.9088 115.812 81.1254 115.873 81.3564C115.934 81.5874 115.949 81.8282 115.917 82.065C115.885 82.3019 115.807 82.5301 115.687 82.7365L106.485 98.6205C106.241 99.0375 105.843 99.3415 105.376 99.4661C104.91 99.5907 104.413 99.526 103.993 99.286C101.472 97.8269 98.6101 97.0586 95.6968 97.0586C92.7834 97.0586 89.9216 97.8269 87.4 99.286C84.8901 100.735 82.8062 102.82 81.3579 105.33C79.9097 107.84 79.1481 110.688 79.15 113.586C79.15 113.829 79.102 114.07 79.0088 114.294C78.9156 114.519 78.779 114.723 78.6068 114.895C78.4346 115.066 78.2302 115.202 78.0054 115.295C77.7805 115.387 77.5396 115.435 77.2965 115.434H55.6045C55.3616 115.435 55.121 115.387 54.8964 115.295C54.6719 115.202 54.4679 115.066 54.2961 114.894C54.1244 114.723 53.9883 114.519 53.8957 114.294C53.8031 114.07 53.7558 113.829 53.7565 113.586C53.7459 110.707 52.9825 107.882 51.5419 105.39C50.1014 102.897 48.034 100.825 45.545 99.3795Z" fill="#DCD9E5"/>
<path d="M66.5055 82.5C75.6182 82.5 83.0055 75.1127 83.0055 66C83.0055 56.8873 75.6182 49.5 66.5055 49.5C57.3928 49.5 50.0055 56.8873 50.0055 66C50.0055 75.1127 57.3928 82.5 66.5055 82.5Z" fill="#DCD9E5"/>
</svg>
