<svg width="133" height="132" viewBox="0 0 133 132" fill="none" xmlns="http://www.w3.org/2000/svg">
<path opacity="0.4" fill-rule="evenodd" clip-rule="evenodd" d="M107.887 60.0601L103.762 100.65C103.855 102.757 103.483 104.859 102.671 106.807C101.86 108.754 100.629 110.498 99.0669 111.916C97.5048 113.333 95.6496 114.39 93.6332 115.009C91.6167 115.629 89.4886 115.796 87.4 115.5H45.7375C33.4175 115.5 30.1725 109.065 29.2925 100.65L25.1125 60.1151C26.0225 60.385 26.9684 60.5149 27.9175 60.5001H104.917C105.923 60.4967 106.924 60.3485 107.887 60.0601Z" fill="#DCD9E5"/>
<path d="M105 38.4999H95.5235L81.1465 14.3879C80.8691 13.9224 80.5028 13.516 80.0684 13.1921C79.6341 12.8682 79.1401 12.633 78.6149 12.4999C78.0896 12.3669 77.5432 12.3386 77.007 12.4167C76.4708 12.4948 75.9552 12.6778 75.4897 12.9551C75.0242 13.2325 74.6179 13.5988 74.294 14.0332C73.9701 14.4676 73.7349 14.9615 73.6018 15.4868C73.4688 16.012 73.4405 16.5584 73.5186 17.0946C73.5967 17.6308 73.7796 18.1464 74.057 18.6119L85.915 38.4999H47.1345L59.13 18.6339C59.4283 18.1702 59.6307 17.6515 59.7251 17.1083C59.8195 16.5651 59.8041 16.0084 59.6797 15.4713C59.5553 14.9342 59.3245 14.4274 59.001 13.981C58.6774 13.5346 58.2676 13.1576 57.7959 12.8722C57.3241 12.5869 56.7999 12.399 56.2543 12.3197C55.7087 12.2404 55.1527 12.2713 54.6192 12.4106C54.0858 12.5498 53.5856 12.7946 53.1484 13.1304C52.7111 13.4663 52.3456 13.8864 52.0735 14.3659L37.504 38.4999H28C25.0826 38.4999 22.2847 39.6588 20.2218 41.7217C18.1589 43.7846 17 46.5825 17 49.4999C17 52.4173 18.1589 55.2151 20.2218 57.278C22.2847 59.3409 25.0826 60.4999 28 60.4999H105C107.917 60.4999 110.715 59.3409 112.778 57.278C114.841 55.2151 116 52.4173 116 49.4999C116 46.5825 114.841 43.7846 112.778 41.7217C110.715 39.6588 107.917 38.4999 105 38.4999Z" fill="#DCD9E5"/>
<path d="M77.5 92.125H55.5C54.406 92.125 53.3568 91.6904 52.5832 90.9168C51.8096 90.1432 51.375 89.094 51.375 88C51.375 86.906 51.8096 85.8568 52.5832 85.0832C53.3568 84.3096 54.406 83.875 55.5 83.875H77.5C78.594 83.875 79.6432 84.3096 80.4168 85.0832C81.1904 85.8568 81.625 86.906 81.625 88C81.625 89.094 81.1904 90.1432 80.4168 90.9168C79.6432 91.6904 78.594 92.125 77.5 92.125Z" fill="#DCD9E5"/>
</svg>
