<?xml version="1.0" encoding="utf-8"?>
<!-- Generator: Adobe Illustrator 26.5.0, SVG Export Plug-In . SVG Version: 6.00 Build 0)  -->
<svg version="1.1" id="Warstwa_1" xmlns="http://www.w3.org/2000/svg" xmlns:xlink="http://www.w3.org/1999/xlink" x="0px" y="0px"
	 viewBox="0 0 71 70" style="enable-background:new 0 0 71 70;" xml:space="preserve">
<style type="text/css">
	.st0{fill:#396CE8;}
	.st1{fill:#B0C4F6;}
</style>
<path class="st0" d="M52,5.8H19c-6.5,0-9.7,3.2-9.7,9.7v29.2c0,6.5,3.2,9.7,9.7,9.7h4.4c0.8,0,1.5,0.2,2.2,0.5s1.3,0.8,1.7,1.4
	l4.4,5.8c0.5,0.6,1,1.1,1.7,1.4c0.7,0.3,1.4,0.5,2.2,0.5s1.5-0.2,2.2-0.5s1.3-0.8,1.7-1.4l4.4-5.8c0.5-0.6,1-1.1,1.7-1.4
	c0.7-0.3,1.4-0.5,2.2-0.5H52c6.5,0,9.7-3.2,9.7-9.7V15.5C61.8,9.1,58.5,5.8,52,5.8z M49.2,30.5c-1.8,9.3-13.6,14.7-13.6,14.7
	S23.8,39.8,22,30.5C20.8,24.8,23.2,19,29.4,19c1.4,0.1,2.7,0.5,3.8,1.4c1.1,0.8,1.9,2,2.4,3.2c0.4-1.3,1.3-2.4,2.4-3.2
	c1.1-0.8,2.4-1.3,3.8-1.4C47.9,19,50.3,24.8,49.2,30.5z"/>
<path class="st1" d="M49.2,30.5c-1.8,9.3-13.6,14.7-13.6,14.7S23.8,39.8,22,30.5C20.8,24.8,23.2,19,29.4,19c1.4,0.1,2.7,0.5,3.8,1.4
	c1.1,0.8,1.9,2,2.4,3.3c0.4-1.3,1.3-2.4,2.4-3.3c1.1-0.8,2.4-1.3,3.8-1.4C47.9,19,50.3,24.8,49.2,30.5z"/>
</svg>
