<?xml version="1.0" encoding="utf-8"?>
<!-- Generator: Adobe Illustrator 26.5.0, SVG Export Plug-In . SVG Version: 6.00 Build 0)  -->
<svg version="1.1" id="Warstwa_1" xmlns="http://www.w3.org/2000/svg" xmlns:xlink="http://www.w3.org/1999/xlink" x="0px" y="0px"
	 viewBox="0 0 71 70" style="enable-background:new 0 0 71 70;" xml:space="preserve">
<style type="text/css">
	.st0{fill:#B0C4F6;}
	.st1{fill:#396CE8;}
</style>
<path class="st0" d="M63.8,62.8c-0.2,0.2-0.4,0.4-0.7,0.5s-0.5,0.2-0.8,0.2s-0.6-0.1-0.8-0.2c-0.3-0.1-0.5-0.3-0.7-0.5L48,50
	c1.1-0.9,2.2-2,3.1-3.1l12.7,12.7c0.4,0.4,0.6,1,0.6,1.5C64.5,61.8,64.3,62.4,63.8,62.8z"/>
<path class="st1" d="M33.1,8.7C20.2,8.7,9.8,19.2,9.8,32.1s10.5,23.3,23.3,23.3C46,55.4,56.5,45,56.5,32.1S46,8.7,33.1,8.7z M37,38
	c-0.4,0.4-1,0.6-1.5,0.6H23.8c-0.6,0-1.1-0.2-1.5-0.6c-0.4-0.4-0.6-1-0.6-1.5c0-0.6,0.2-1.1,0.6-1.6c0.4-0.4,1-0.6,1.5-0.6h11.7
	c0.6,0,1.1,0.2,1.5,0.6c0.4,0.4,0.6,1,0.6,1.6C37.7,37,37.5,37.6,37,38z M42.9,29.3c-0.4,0.4-1,0.6-1.5,0.6H23.8
	c-0.6,0-1.1-0.2-1.5-0.6s-0.6-1-0.6-1.5c0-0.6,0.2-1.1,0.6-1.6c0.4-0.4,1-0.6,1.5-0.6h17.5c0.6,0,1.1,0.2,1.5,0.6s0.6,1,0.6,1.6
	C43.5,28.3,43.3,28.8,42.9,29.3z"/>
<path class="st0" d="M43.5,27.7c0,0.6-0.2,1.1-0.6,1.5c-0.4,0.4-1,0.6-1.5,0.6H23.8c-0.6,0-1.1-0.2-1.5-0.6s-0.6-1-0.6-1.5
	c0-0.6,0.2-1.1,0.6-1.5s1-0.6,1.5-0.6h17.5c0.6,0,1.1,0.2,1.5,0.6C43.3,26.6,43.5,27.1,43.5,27.7z M35.5,34.3H23.8
	c-0.6,0-1.1,0.2-1.5,0.6c-0.4,0.4-0.6,1-0.6,1.5c0,0.6,0.2,1.1,0.6,1.5s1,0.6,1.5,0.6h11.7c0.6,0,1.1-0.2,1.5-0.6
	c0.4-0.4,0.6-1,0.6-1.5c0-0.6-0.2-1.1-0.6-1.5C36.6,34.5,36.1,34.3,35.5,34.3z"/>
</svg>
