<?xml version="1.0" encoding="utf-8"?>
<!-- Generator: Adobe Illustrator 26.5.0, SVG Export Plug-In . SVG Version: 6.00 Build 0)  -->
<svg version="1.1" id="Warstwa_1" xmlns="http://www.w3.org/2000/svg" xmlns:xlink="http://www.w3.org/1999/xlink" x="0px" y="0px"
	 viewBox="0 0 71 70" style="enable-background:new 0 0 71 70;" xml:space="preserve">
<style type="text/css">
	.st0{fill:#396CE8;}
	.st1{fill:#B0C4F6;}
</style>
<path class="st0" d="M61.6,24.4L59.2,39l0.5-3.2H38.4c-0.6,0-1.1,0.2-1.5,0.6c-0.4,0.4-0.6,1-0.6,1.5c0,0.6,0.2,1.1,0.6,1.5
	c0.4,0.4,1,0.6,1.5,0.6h20.7l-0.4,2.3c0,1.1-0.3,2.1-0.8,3c-0.5,1-1.1,1.8-1.9,2.5c-0.8,0.7-1.8,1.2-2.8,1.5s-2.1,0.4-3.1,0.2H26
	c-1.4,0-2.8-0.5-3.8-1.4c-1.1-0.9-1.8-2.2-1.9-3.6L15.9,14c-0.1-0.9-0.5-1.7-1.2-2.3s-1.5-0.9-2.4-0.9h-0.8c-0.6,0-1.1-0.2-1.5-0.6
	c-0.4-0.4-0.6-1-0.6-1.5S9.6,7.6,10,7.2c0.4-0.4,1-0.6,1.5-0.6h0.8c1.9,0,3.8,0.7,5.3,2c1.5,1.3,2.4,3,2.7,5l0.6,4h35.2
	c0.9,0,1.7,0.2,2.5,0.6s1.5,0.9,2,1.5c0.5,0.7,0.9,1.4,1.2,2.2C61.8,22.7,61.8,23.5,61.6,24.4z"/>
<path class="st1" d="M26.8,64.9c-1,0-1.9-0.4-2.6-1.1c-0.7-0.7-1.1-1.6-1.1-2.6s0.4-1.9,1.1-2.6c0.7-0.7,1.6-1.1,2.6-1.1l0,0
	c1,0,1.9,0.4,2.6,1.1c0.7,0.7,1.1,1.6,1.1,2.6s-0.4,1.9-1.1,2.6C28.7,64.5,27.8,64.9,26.8,64.9z"/>
<path class="st1" d="M50.1,64.9c-1,0-1.9-0.4-2.6-1.1c-0.7-0.7-1.1-1.6-1.1-2.6s0.4-1.9,1.1-2.6c0.7-0.7,1.6-1.1,2.6-1.1l0,0
	c1,0,1.9,0.4,2.6,1.1c0.7,0.7,1.1,1.6,1.1,2.6s-0.4,1.9-1.1,2.6C52,64.5,51.1,64.9,50.1,64.9z"/>
<path class="st1" d="M59.8,35.7l-0.7,4.4H38.4c-0.6,0-1.1-0.2-1.5-0.6c-0.4-0.4-0.6-1-0.6-1.5s0.2-1.1,0.6-1.5
	c0.4-0.4,1-0.6,1.5-0.6h21.4V35.7z"/>
</svg>
