<?xml version="1.0" encoding="utf-8"?>
<!-- Generator: Adobe Illustrator 26.5.0, SVG Export Plug-In . SVG Version: 6.00 Build 0)  -->
<svg version="1.1" id="Warstwa_1" xmlns="http://www.w3.org/2000/svg" xmlns:xlink="http://www.w3.org/1999/xlink" x="0px" y="0px"
	 viewBox="0 0 71 70" style="enable-background:new 0 0 71 70;" xml:space="preserve">
<style type="text/css">
	.st0{fill:#396CE8;}
	.st1{fill:#B0C4F6;}
</style>
<path class="st0" d="M40.7,39.1H30.3c-1.9-0.1-3.9,0.2-5.7,0.8c-1.8,0.7-3.5,1.7-4.8,3.1c-1.4,1.4-2.4,3-3.1,4.8
	c-0.7,1.8-1,3.8-0.8,5.7c-0.1,1.2,0,2.5,0.4,3.7c0.4,1.2,1.1,2.3,2,3.1c0.9,0.9,2,1.6,3.2,2s2.5,0.5,3.7,0.4H46
	c1.2,0.2,2.5,0,3.7-0.4s2.3-1.1,3.2-2s1.6-2,2-3.1c0.4-1.2,0.6-2.4,0.4-3.7c0.1-1.9-0.2-3.9-0.8-5.7c-0.7-1.8-1.7-3.5-3.1-4.8
	c-1.4-1.4-3-2.4-4.8-3.1C44.6,39.2,42.6,38.9,40.7,39.1z"/>
<path class="st1" d="M35.5,33.6c2,0,4-0.6,5.7-1.7c1.7-1.1,3-2.7,3.7-4.6c0.8-1.9,1-3.9,0.6-5.9s-1.4-3.8-2.8-5.2
	c-1.4-1.4-3.3-2.4-5.2-2.8c-2-0.4-4-0.2-5.9,0.6s-3.5,2.1-4.6,3.8s-1.7,3.7-1.7,5.7c0,2.7,1.1,5.3,3,7.2
	C30.2,32.5,32.8,33.6,35.5,33.6z"/>
<path class="st0" d="M66.1,36.9c0.1,1,0,1.9-0.3,2.8c-0.3,0.9-0.8,1.7-1.5,2.4c-0.7,0.7-1.5,1.2-2.4,1.5C61,44,60,44.1,59,44h-1.2
	c-0.2,0-0.3,0-0.5-0.1c-0.1-0.1-0.3-0.2-0.3-0.4c-1.1-2.1-2.7-3.8-4.6-5.2c-1.9-1.4-4-2.4-6.3-2.9c-0.2,0-0.3-0.1-0.4-0.2
	c-0.1-0.1-0.2-0.2-0.3-0.4c0-0.1-0.1-0.3,0-0.5c0-0.2,0.1-0.3,0.2-0.4c2-1.9,3.5-4.4,4.1-7.1c0-0.2,0.2-0.4,0.3-0.5
	c0.2-0.1,0.3-0.2,0.5-0.2h4.7c1.4-0.1,2.9,0.1,4.3,0.6c1.4,0.5,2.6,1.3,3.6,2.3s1.8,2.3,2.3,3.6C66,34,66.2,35.4,66.1,36.9z"/>
<path class="st1" d="M59.4,15.1c0,2.1-0.8,4.1-2.3,5.5c-1.5,1.5-3.4,2.3-5.5,2.3c-0.2,0-0.4,0-0.6,0c-0.2,0-0.4-0.1-0.6-0.3
	c-0.1-0.1-0.2-0.3-0.2-0.5c-0.2-1.9-0.7-3.7-1.5-5.4c-0.9-1.7-2.1-3.2-3.5-4.4c-0.2-0.1-0.3-0.3-0.3-0.4c-0.1-0.2,0-0.4,0.1-0.6
	c0.8-1.5,2.2-2.7,3.8-3.4s3.4-0.8,5-0.4s3.1,1.4,4.2,2.8C58.8,11.7,59.4,13.4,59.4,15.1L59.4,15.1z"/>
<path class="st0" d="M4.9,36.9c-0.1,1,0,1.9,0.3,2.8c0.3,0.9,0.8,1.7,1.5,2.4s1.5,1.2,2.4,1.5C10,44,11,44.1,12,44h1.2
	c0.2,0,0.3,0,0.5-0.1c0.1-0.1,0.3-0.2,0.3-0.4c1.1-2.1,2.7-3.8,4.6-5.2s4-2.4,6.3-2.9c0.2,0,0.3-0.1,0.4-0.2
	c0.1-0.1,0.2-0.2,0.3-0.4c0-0.1,0.1-0.3,0-0.5c0-0.2-0.1-0.3-0.2-0.4c-2-1.9-3.5-4.4-4.1-7.1c0-0.2-0.2-0.4-0.3-0.5
	c-0.2-0.1-0.3-0.2-0.5-0.2h-4.7c-1.4-0.1-2.9,0.1-4.3,0.6C10.1,27.2,8.9,28,7.8,29c-1,1-1.8,2.3-2.3,3.6C5,34,4.8,35.4,4.9,36.9z"/>
<path class="st1" d="M11.6,15.1c0,2.1,0.8,4.1,2.3,5.5c1.5,1.5,3.4,2.3,5.5,2.3c0.2,0,0.4,0,0.6,0s0.4-0.1,0.6-0.3
	c0.1-0.1,0.2-0.3,0.2-0.5c0.2-1.9,0.7-3.7,1.5-5.4c0.9-1.7,2.1-3.2,3.5-4.4c0.2-0.1,0.3-0.3,0.3-0.4c0.1-0.2,0-0.4-0.1-0.6
	c-0.8-1.5-2.2-2.7-3.8-3.4c-1.6-0.7-3.4-0.8-5-0.4s-3.1,1.4-4.2,2.8C12.2,11.7,11.6,13.4,11.6,15.1L11.6,15.1z"/>
</svg>
