<?xml version="1.0" encoding="utf-8"?>
<!-- Generator: Adobe Illustrator 26.5.0, SVG Export Plug-In . SVG Version: 6.00 Build 0)  -->
<svg version="1.1" id="Warstwa_1" xmlns="http://www.w3.org/2000/svg" xmlns:xlink="http://www.w3.org/1999/xlink" x="0px" y="0px"
	 viewBox="0 0 71 70" style="enable-background:new 0 0 71 70;" xml:space="preserve">
<style type="text/css">
	.st0{fill:#B0C4F6;}
	.st1{fill:#396CE8;}
</style>
<path class="st0" d="M61.3,39.7c-0.7,3.9-2.3,7.7-4.7,10.9c-2.4,3.2-5.5,5.9-9,7.7c-3.6,1.8-7.5,2.9-11.5,3c-4,0.1-8-0.7-11.6-2.4
	c-1.3-0.6-2.8-0.6-4.1-0.2l-7.3,2.5c-0.5,0.2-1.1,0.2-1.6,0.1c-0.5-0.1-1-0.4-1.4-0.8C9.7,60,9.4,59.5,9.3,59
	c-0.1-0.5-0.1-1.1,0.1-1.6l2.4-7.3c0.5-1.4,0.4-2.8-0.2-4.1c-2.2-4.8-2.9-10.2-2.1-15.4c0.9-5.2,3.3-10,7-13.8
	c3.7-3.8,8.4-6.4,13.6-7.5c5.2-1.1,10.6-0.5,15.4,1.5c0.2,0.1,0.4,0.2,0.4,0.4c0.1,0.2,0.1,0.4,0,0.6c-0.3,1-0.4,2.1-0.4,3.2
	c0.1,2.5,1.2,4.9,3,6.7c1.8,1.8,4.2,2.9,6.7,3c1.1,0.1,2.2-0.1,3.2-0.4c0.2-0.1,0.4-0.1,0.6,0c0.2,0.1,0.4,0.2,0.4,0.4
	C61.7,29.6,62.2,34.7,61.3,39.7z"/>
<path class="st1" d="M55.9,20.4c3.2,0,5.8-2.6,5.8-5.8c0-3.2-2.6-5.8-5.8-5.8c-3.2,0-5.8,2.6-5.8,5.8C50.1,17.8,52.7,20.4,55.9,20.4
	z"/>
</svg>
