<?xml version="1.0" encoding="utf-8"?>
<!-- Generator: Adobe Illustrator 26.5.0, SVG Export Plug-In . SVG Version: 6.00 Build 0)  -->
<svg version="1.1" id="Warstwa_1" xmlns="http://www.w3.org/2000/svg" xmlns:xlink="http://www.w3.org/1999/xlink" x="0px" y="0px"
	 viewBox="0 0 71 70" style="enable-background:new 0 0 71 70;" xml:space="preserve">
<style type="text/css">
	.st0{fill:#B0C4F6;}
	.st1{fill:#396CE8;}
</style>
<path class="st0" d="M64.7,37.9c0,3.9-1.5,7.6-4.3,10.3c-2.7,2.7-6.4,4.3-10.3,4.3h-19c-0.6,0-1.2,0-1.8-0.1c-0.1,0-0.3-0.1-0.4-0.2
	c-0.1-0.1-0.2-0.2-0.3-0.3c-0.1-0.1-0.1-0.3-0.1-0.4c0-0.1,0.1-0.3,0.1-0.4c1.6-2.6,2.4-5.6,2.4-8.7v-6.6c0-1-0.3-1.9-0.9-2.7
	c-0.6-0.8-1.4-1.3-2.4-1.6c-3.2-0.7-6.3-1.9-9.3-3.4c-0.6-0.3-1.3-0.5-2-0.5c-0.7,0-1.4,0.2-2,0.5c-0.2,0.1-0.3,0.1-0.5,0.1
	c-0.2,0-0.4-0.1-0.5-0.2c-0.1-0.1-0.2-0.3-0.3-0.5c0-0.2,0-0.4,0-0.5c1-2.9,2.8-5.5,5.1-7.6c2.3-2.1,5-3.6,8-4.3
	c3-0.8,6.1-0.8,9.1-0.1c3,0.7,5.8,2.2,8.1,4.2c1.4,1.2,2.6,2.7,3.6,4.3c0.9-0.2,1.9-0.3,2.8-0.3c3.9,0,7.6,1.5,10.3,4.3
	C63.1,30.3,64.7,34,64.7,37.9z"/>
<path class="st1" d="M26.8,35.8c-3.5-0.8-7-2.1-10.2-3.7c-3.3,1.6-6.7,3-10.2,3.9v6.5c0.1,3,1.2,5.8,3,8.1c1.8,2.3,4.4,4,7.2,4.8
	c2.8-0.8,5.4-2.5,7.2-4.8c1.8-2.3,2.9-5.2,3-8.1V35.8z"/>
</svg>
