<?xml version="1.0" encoding="utf-8"?>
<!-- Generator: Adobe Illustrator 26.5.0, SVG Export Plug-In . SVG Version: 6.00 Build 0)  -->
<svg version="1.1" id="Warstwa_1" xmlns="http://www.w3.org/2000/svg" xmlns:xlink="http://www.w3.org/1999/xlink" x="0px" y="0px"
	 viewBox="0 0 71 70" style="enable-background:new 0 0 71 70;" xml:space="preserve">
<style type="text/css">
	.st0{fill:#B0C4F6;}
	.st1{fill:#396CE8;}
</style>
<path class="st0" d="M58.8,26.3v7.1c0,0.1,0,0.2-0.1,0.3c0,0.1-0.1,0.2-0.2,0.3c-0.1,0.1-0.2,0.1-0.3,0.2c-0.1,0-0.2,0.1-0.3,0.1
	c-0.1,0-0.2,0-0.3-0.1c-1.5-0.4-3-0.7-4.6-0.7c-4.3,0-8.3,1.7-11.3,4.7c-3,3-4.7,7.1-4.7,11.3c0,0.7,0,1.3,0.1,2
	c0,0.2-0.1,0.5-0.3,0.6c-0.2,0.2-0.4,0.3-0.6,0.3H15.1c-1.2,0.2-2.4,0.1-3.5-0.3c-1.1-0.4-2.2-1-3-1.9c-0.8-0.8-1.5-1.9-1.9-3
	c-0.4-1.1-0.5-2.4-0.3-3.5V26.3H58.8z"/>
<path class="st1" d="M58.8,20.4v5.8H6.3v-5.8c-0.2-1.2-0.1-2.4,0.3-3.5c0.4-1.1,1-2.2,1.9-3c0.8-0.8,1.9-1.5,3-1.9
	c1.1-0.4,2.4-0.5,3.5-0.3h35c1.2-0.2,2.4-0.1,3.5,0.3c1.1,0.4,2.2,1,3,1.9c0.8,0.8,1.5,1.9,1.9,3C58.9,18,59,19.2,58.8,20.4z"/>
<path class="st1" d="M26.8,43H18c-0.6,0-1.1-0.2-1.5-0.6c-0.4-0.4-0.6-1-0.6-1.5c0-0.6,0.2-1.1,0.6-1.5c0.4-0.4,1-0.6,1.5-0.6h8.8
	c0.6,0,1.1,0.2,1.5,0.6c0.4,0.4,0.6,1,0.6,1.5c0,0.6-0.2,1.1-0.6,1.5C27.9,42.8,27.3,43,26.8,43z"/>
<path class="st1" d="M53,37.9c-2.3,0-4.6,0.7-6.5,2c-1.9,1.3-3.4,3.1-4.3,5.2c-0.9,2.1-1.1,4.5-0.7,6.7c0.5,2.3,1.6,4.3,3.2,6
	c1.6,1.6,3.7,2.7,6,3.2c2.3,0.5,4.6,0.2,6.7-0.7c2.1-0.9,4-2.4,5.2-4.3c1.3-1.9,2-4.2,2-6.5c0-3.1-1.2-6.1-3.4-8.2
	C59.1,39.1,56.1,37.9,53,37.9z M57.7,48.2l-4.8,4.9c-0.3,0.3-0.7,0.4-1,0.4c-0.4,0-0.7-0.1-1-0.4l-2.4-2.5c-0.3-0.3-0.4-0.6-0.4-1
	c0-0.4,0.2-0.7,0.4-1c0.3-0.3,0.6-0.4,1-0.4c0.4,0,0.7,0.1,1,0.4l1.4,1.4l3.8-3.9c0.3-0.3,0.6-0.4,1-0.4c0.4,0,0.7,0.1,1,0.4
	c0.1,0.1,0.2,0.3,0.3,0.5c0.1,0.2,0.1,0.4,0.1,0.6s0,0.4-0.1,0.6C57.9,47.9,57.8,48,57.7,48.2z"/>
</svg>
