<?xml version="1.0" encoding="utf-8"?>
<!-- Generator: Adobe Illustrator 26.5.0, SVG Export Plug-In . SVG Version: 6.00 Build 0)  -->
<svg version="1.1" id="Warstwa_1" xmlns="http://www.w3.org/2000/svg" xmlns:xlink="http://www.w3.org/1999/xlink" x="0px" y="0px"
	 viewBox="0 0 71 70" style="enable-background:new 0 0 71 70;" xml:space="preserve">
<style type="text/css">
	.st0{fill:#B0C4F6;}
	.st1{fill:#396CE8;}
</style>
<path class="st0" d="M9.2,48.1V21.9c-0.2-1.2-0.1-2.4,0.3-3.5c0.4-1.1,1-2.2,1.9-3c0.8-0.8,1.9-1.5,3-1.9c1.1-0.4,2.4-0.5,3.5-0.3
	h35c1.2-0.2,2.4-0.1,3.5,0.3c1.1,0.4,2.2,1,3,1.9c0.8,0.8,1.5,1.9,1.9,3c0.4,1.1,0.5,2.4,0.3,3.5v26.2c0.2,1.2,0.1,2.4-0.3,3.5
	c-0.4,1.1-1,2.2-1.9,3c-0.8,0.8-1.9,1.5-3,1.9c-1.1,0.4-2.4,0.5-3.5,0.3H18c-1.2,0.2-2.4,0.1-3.5-0.3c-1.1-0.4-2.2-1-3-1.9
	c-0.8-0.8-1.5-1.9-1.9-3C9.2,50.5,9.1,49.3,9.2,48.1z"/>
<path class="st1" d="M20.5,28.1c0-1.2,0.4-2.5,1.1-3.5c0.7-1,1.7-1.8,2.8-2.3c1.1-0.5,2.4-0.6,3.6-0.4c1.2,0.2,2.3,0.8,3.2,1.7
	c0.9,0.9,1.5,2,1.7,3.2c0.2,1.2,0.1,2.5-0.4,3.6c-0.5,1.1-1.3,2.1-2.3,2.8c-1,0.7-2.2,1.1-3.5,1.1c-1.7,0-3.3-0.7-4.4-1.8
	C21.2,31.4,20.5,29.8,20.5,28.1z M28.6,37.9h-3.7c-1.1-0.1-2.1,0.1-3.2,0.5c-1,0.4-1.9,0.9-2.7,1.7c-0.8,0.7-1.4,1.6-1.8,2.6
	c-0.4,1-0.6,2.1-0.6,3.1v0.9c0,0.4,0.2,0.8,0.4,1c0.3,0.3,0.6,0.4,1,0.4h17.5c0.4,0,0.8-0.2,1-0.4c0.3-0.3,0.4-0.6,0.4-1v-0.9
	c0-1.1-0.2-2.1-0.6-3.1c-0.4-1-1-1.9-1.8-2.6c-0.8-0.7-1.7-1.3-2.7-1.7C30.8,38,29.7,37.8,28.6,37.9z"/>
<path class="st1" d="M53,31.2H41.3c-0.6,0-1.1-0.2-1.5-0.6c-0.4-0.4-0.6-1-0.6-1.5c0-0.6,0.2-1.1,0.6-1.5c0.4-0.4,1-0.6,1.5-0.6H53
	c0.6,0,1.1,0.2,1.5,0.6c0.4,0.4,0.6,1,0.6,1.5c0,0.6-0.2,1.1-0.6,1.5C54.1,30.9,53.6,31.2,53,31.2z"/>
<path class="st1" d="M52.9,43h-8.8c-0.6,0-1.1-0.2-1.5-0.6c-0.4-0.4-0.6-1-0.6-1.5c0-0.6,0.2-1.1,0.6-1.5c0.4-0.4,1-0.6,1.5-0.6h8.8
	c0.6,0,1.1,0.2,1.5,0.6c0.4,0.4,0.6,1,0.6,1.5c0,0.6-0.2,1.1-0.6,1.5C54,42.8,53.4,43,52.9,43z"/>
</svg>
