<?xml version="1.0" encoding="utf-8"?>
<!-- Generator: Adobe Illustrator 26.5.0, SVG Export Plug-In . SVG Version: 6.00 Build 0)  -->
<svg version="1.1" id="Warstwa_1" xmlns="http://www.w3.org/2000/svg" xmlns:xlink="http://www.w3.org/1999/xlink" x="0px" y="0px"
	 viewBox="0 0 71 70" style="enable-background:new 0 0 71 70;" xml:space="preserve">
<style type="text/css">
	.st0{fill:#B0C4F6;}
	.st1{fill:#396CE8;}
</style>
<path class="st0" d="M55.9,17.5H20.7l-0.6-4c-0.3-1.9-1.2-3.7-2.7-4.9c-1.5-1.3-3.3-2-5.3-1.9h-0.8c-0.6,0-1.1,0.2-1.5,0.6
	c-0.4,0.4-0.6,1-0.6,1.5s0.2,1.1,0.6,1.5c0.4,0.4,1,0.6,1.5,0.6h0.8c0.9,0,1.7,0.3,2.4,0.9c0.7,0.6,1.1,1.4,1.2,2.3l4.4,30.5
	c0.2,1.4,0.9,2.7,1.9,3.6c1.1,0.9,2.4,1.4,3.8,1.4h24.1c1,0.2,2.1,0.1,3.1-0.2c1-0.3,2-0.8,2.8-1.5c0.8-0.7,1.5-1.5,1.9-2.5
	c0.5-0.9,0.7-2,0.8-3l2.9-18c0.2-0.8,0.1-1.7-0.1-2.5c-0.2-0.8-0.6-1.6-1.2-2.2c-0.5-0.7-1.2-1.2-2-1.5
	C57.6,17.7,56.8,17.5,55.9,17.5z"/>
<path class="st1" d="M26.8,64.9c-1,0-1.9-0.4-2.6-1.1c-0.7-0.7-1.1-1.6-1.1-2.6c0-1,0.4-1.9,1.1-2.6c0.7-0.7,1.6-1.1,2.6-1.1h0
	c1,0,1.9,0.4,2.6,1.1c0.7,0.7,1.1,1.6,1.1,2.6c0,1-0.4,1.9-1.1,2.6C28.7,64.5,27.8,64.9,26.8,64.9z"/>
<path class="st1" d="M50.1,64.9c-1,0-1.9-0.4-2.6-1.1c-0.7-0.7-1.1-1.6-1.1-2.6c0-1,0.4-1.9,1.1-2.6c0.7-0.7,1.6-1.1,2.6-1.1h0
	c1,0,1.9,0.4,2.6,1.1c0.7,0.7,1.1,1.6,1.1,2.6c0,1-0.4,1.9-1.1,2.6C52,64.5,51.1,64.9,50.1,64.9z"/>
<path class="st1" d="M59.8,35.7l-0.7,4.4H38.4c-0.6,0-1.1-0.2-1.5-0.6c-0.4-0.4-0.6-1-0.6-1.5s0.2-1.1,0.6-1.5
	c0.4-0.4,1-0.6,1.5-0.6H59.8z"/>
</svg>
