<svg width="50" height="50" viewBox="0 0 50 50" fill="none" xmlns="http://www.w3.org/2000/svg">
<path opacity="0.4" d="M43.75 24.8958V37.5C43.8711 38.349 43.793 39.2145 43.5217 40.028C43.2505 40.8415 42.7936 41.5808 42.1872 42.1872C41.5808 42.7935 40.8416 43.2505 40.028 43.5217C39.2145 43.793 38.349 43.8711 37.5 43.75H12.5C11.651 43.8711 10.7855 43.793 9.97199 43.5217C9.15846 43.2505 8.41924 42.7935 7.81285 42.1872C7.20646 41.5808 6.74955 40.8415 6.47829 40.028C6.20703 39.2145 6.12887 38.349 6.25 37.5V24.875C6.8873 25.614 7.69544 26.1861 8.60417 26.5417C11.5568 27.7003 14.6025 28.6063 17.7083 29.25C18.1237 29.3209 18.5507 29.2678 18.9361 29.0973C19.3214 28.9269 19.648 28.6467 19.875 28.2917C20.425 27.4229 21.1801 26.7026 22.0737 26.1941C22.9673 25.6855 23.9722 25.4042 25 25.375C26.0278 25.4042 27.0327 25.6855 27.9263 26.1941C28.82 26.7026 29.575 27.4229 30.125 28.2917C30.3579 28.6458 30.6885 28.9249 31.0768 29.095C31.465 29.2651 31.8943 29.3189 32.3125 29.25C35.4124 28.6097 38.4514 27.7036 41.3958 26.5417C42.2964 26.1808 43.1018 25.6177 43.75 24.8958Z" fill="#815AF0"/>
<path d="M43.75 18.75V24.8958C43.1018 25.6176 42.2964 26.1808 41.3958 26.5416C38.4514 27.7036 35.4124 28.6097 32.3125 29.25C31.8943 29.3189 31.465 29.265 31.0768 29.0949C30.6885 28.9248 30.3579 28.6458 30.125 28.2916C29.575 27.4229 28.82 26.7026 27.9263 26.194C27.0327 25.6855 26.0278 25.4042 25 25.375C23.9722 25.4042 22.9673 25.6855 22.0737 26.194C21.1801 26.7026 20.425 27.4229 19.875 28.2916C19.648 28.6466 19.3214 28.9269 18.9361 29.0973C18.5507 29.2677 18.1237 29.3208 17.7083 29.25C14.6025 28.6063 11.5568 27.7003 8.60417 26.5416C7.69544 26.1861 6.8873 25.6139 6.25 24.875V18.75C6.12887 17.901 6.20703 17.0355 6.47829 16.222C6.74955 15.4084 7.20646 14.6692 7.81285 14.0628C8.41924 13.4564 9.15846 12.9995 9.97199 12.7283C10.7855 12.457 11.651 12.3788 12.5 12.5H37.5C38.349 12.3788 39.2145 12.457 40.028 12.7283C40.8416 12.9995 41.5808 13.4564 42.1872 14.0628C42.7936 14.6692 43.2505 15.4084 43.5217 16.222C43.793 17.0355 43.8711 17.901 43.75 18.75Z" fill="#815AF0"/>
<path opacity="0.4" d="M34.8958 9.37508V12.5001H31.7708V9.37508C31.7714 9.30653 31.7583 9.23855 31.7323 9.17511C31.7063 9.11167 31.668 9.05403 31.6195 9.00556C31.5711 8.95708 31.5134 8.91874 31.45 8.89276C31.3865 8.86679 31.3186 8.85369 31.25 8.85425H18.75C18.6815 8.85369 18.6135 8.86679 18.55 8.89276C18.4866 8.91874 18.429 8.95708 18.3805 9.00556C18.332 9.05403 18.2937 9.11167 18.2677 9.17511C18.2417 9.23855 18.2286 9.30653 18.2292 9.37508V12.5001H15.1042V9.37508C15.1053 8.40848 15.4897 7.48179 16.1732 6.79831C16.8567 6.11482 17.7834 5.73035 18.75 5.72925H31.25C32.2156 5.73363 33.1404 6.11915 33.8232 6.80193C34.5059 7.48471 34.8915 8.4095 34.8958 9.37508Z" fill="#815AF0"/>
<path d="M25 33.3334C24.4475 33.3356 23.9167 33.1183 23.5244 32.7291C23.1322 32.34 22.9106 31.8109 22.9083 31.2584C22.9061 30.7059 23.1235 30.1751 23.5126 29.7828C23.9018 29.3906 24.4308 29.169 24.9833 29.1667H25C25.5525 29.1667 26.0824 29.3862 26.4731 29.7769C26.8638 30.1676 27.0833 30.6975 27.0833 31.2501C27.0833 31.8026 26.8638 32.3325 26.4731 32.7232C26.0824 33.1139 25.5525 33.3334 25 33.3334Z" fill="#815AF0"/>
</svg>
