<svg width="50" height="50" viewBox="0 0 50 50" fill="none" xmlns="http://www.w3.org/2000/svg">
<path opacity="0.4" d="M41.6667 16.6667V25.9605C41.6645 26.0584 41.6394 26.1544 41.5934 26.2408C41.5473 26.3272 41.4816 26.4016 41.4015 26.458C41.3214 26.5143 41.2292 26.5511 41.1324 26.5653C41.0355 26.5795 40.9366 26.5707 40.8437 26.5397C39.5859 26.1533 38.2704 25.989 36.9562 26.0542C34.1173 26.2155 31.437 27.4158 29.4264 29.4265C27.4157 31.4371 26.2154 34.1174 26.0542 36.9563C25.9889 38.2705 26.1532 39.586 26.5396 40.8438C26.5706 40.9367 26.5794 41.0356 26.5652 41.1325C26.551 41.2293 26.5143 41.3215 26.4579 41.4016C26.4015 41.4817 26.3272 41.5474 26.2407 41.5935C26.1543 41.6395 26.0583 41.6646 25.9604 41.6667H10.4167C9.56769 41.7879 8.70218 41.7097 7.88865 41.4385C7.07511 41.1672 6.33589 40.7103 5.7295 40.1039C5.12311 39.4975 4.6662 38.7583 4.39495 37.9448C4.12369 37.1312 4.04553 36.2657 4.16666 35.4167V16.6667H41.6667Z" fill="#815AF0"/>
<path d="M35.4167 7.29175H32.8125V4.16675C32.8125 3.75235 32.6479 3.35492 32.3548 3.06189C32.0618 2.76887 31.6644 2.60425 31.25 2.60425C30.8356 2.60425 30.4382 2.76887 30.1451 3.06189C29.8521 3.35492 29.6875 3.75235 29.6875 4.16675V7.29175H16.1458V4.16675C16.1458 3.75235 15.9812 3.35492 15.6882 3.06189C15.3952 2.76887 14.9977 2.60425 14.5833 2.60425C14.1689 2.60425 13.7715 2.76887 13.4785 3.06189C13.1854 3.35492 13.0208 3.75235 13.0208 4.16675V7.29175H10.4167C9.56769 7.17062 8.70218 7.24878 7.88865 7.52003C7.07512 7.79129 6.33589 8.2482 5.7295 8.85459C5.12311 9.46098 4.6662 10.2002 4.39495 11.0137C4.12369 11.8273 4.04553 12.6928 4.16666 13.5417V16.6667H41.6667V13.5417C41.7878 12.6928 41.7096 11.8273 41.4384 11.0137C41.1671 10.2002 40.7102 9.46098 40.1038 8.85459C39.4974 8.2482 38.7582 7.79129 37.9447 7.52003C37.1311 7.24878 36.2656 7.17062 35.4167 7.29175Z" fill="#815AF0"/>
<path d="M14.625 27.0834C14.0725 27.0862 13.5415 26.8693 13.1488 26.4806C12.7562 26.0918 12.534 25.563 12.5312 25.0105C12.5285 24.458 12.7453 23.927 13.1341 23.5343C13.5228 23.1417 14.0516 22.9195 14.6042 22.9167H14.625C15.1775 22.9167 15.7074 23.1362 16.0981 23.5269C16.4888 23.9176 16.7083 24.4475 16.7083 25.0001C16.7083 25.5526 16.4888 26.0825 16.0981 26.4732C15.7074 26.8639 15.1775 27.0834 14.625 27.0834ZM25.0417 25.0001C25.0417 24.4475 24.8222 23.9176 24.4315 23.5269C24.0408 23.1362 23.5109 22.9167 22.9583 22.9167H22.9375C22.5264 22.9209 22.1256 23.0465 21.7858 23.2779C21.4459 23.5093 21.1822 23.8361 21.0277 24.2172C20.8732 24.5982 20.8349 25.0164 20.9176 25.4191C21.0003 25.8219 21.2004 26.1911 21.4925 26.4804C21.7847 26.7697 22.1559 26.9661 22.5595 27.0448C22.963 27.1235 23.3809 27.081 23.7603 26.9228C24.1398 26.7645 24.4639 26.4975 24.692 26.1553C24.92 25.8132 25.0416 25.4112 25.0417 25.0001ZM16.7083 33.3334C16.7083 32.7809 16.4888 32.251 16.0981 31.8603C15.7074 31.4696 15.1775 31.2501 14.625 31.2501H14.6042C14.193 31.2542 13.7923 31.3799 13.4525 31.6113C13.1126 31.8427 12.8488 32.1695 12.6943 32.5505C12.5398 32.9315 12.5015 33.3497 12.5843 33.7525C12.667 34.1552 12.867 34.5245 13.1592 34.8138C13.4514 35.103 13.8226 35.2994 14.2262 35.3781C14.6297 35.4568 15.0475 35.4144 15.427 35.2561C15.8065 35.0978 16.1306 34.8308 16.3586 34.4887C16.5866 34.1465 16.7083 33.7446 16.7083 33.3334Z" fill="#815AF0"/>
<path d="M37.5 29.1667C35.8518 29.1667 34.2407 29.6555 32.8702 30.5712C31.4998 31.4868 30.4317 32.7883 29.801 34.3111C29.1703 35.8338 29.0052 37.5093 29.3268 39.1258C29.6483 40.7423 30.442 42.2272 31.6074 43.3926C32.7729 44.5581 34.2577 45.3518 35.8742 45.6733C37.4908 45.9948 39.1663 45.8298 40.689 45.1991C42.2117 44.5683 43.5132 43.5002 44.4289 42.1298C45.3446 40.7594 45.8333 39.1483 45.8333 37.5001C45.8333 35.2899 44.9554 33.1703 43.3926 31.6075C41.8297 30.0447 39.7101 29.1667 37.5 29.1667ZM40.4687 40.4667C40.2734 40.662 40.0085 40.7717 39.7323 40.7717C39.4561 40.7717 39.1912 40.662 38.9958 40.4667L36.7625 38.2376C36.6658 38.1407 36.5892 38.0256 36.537 37.8991C36.4848 37.7726 36.4581 37.637 36.4583 37.5001V34.3751C36.4583 34.0988 36.5681 33.8339 36.7634 33.6385C36.9588 33.4432 37.2237 33.3334 37.5 33.3334C37.7763 33.3334 38.0412 33.4432 38.2366 33.6385C38.4319 33.8339 38.5417 34.0988 38.5417 34.3751V37.0688L40.4687 38.9938C40.664 39.1892 40.7737 39.4541 40.7737 39.7303C40.7737 40.0065 40.664 40.2714 40.4687 40.4667Z" fill="#815AF0"/>
</svg>
