<svg width="111" height="110" viewBox="0 0 111 110" fill="none" xmlns="http://www.w3.org/2000/svg">
<path opacity="0.4" d="M55.3333 110C85.709 110 110.333 85.3757 110.333 55C110.333 24.6243 85.709 0 55.3333 0C24.9577 0 0.333313 24.6243 0.333313 55C0.333313 85.3757 24.9577 110 55.3333 110Z" fill="#F07087"/>
<path d="M73.3963 54.7824C72.8886 54.2679 72.2857 53.8597 71.622 53.5812C70.9583 53.3027 70.2469 53.1593 69.5284 53.1593C68.8099 53.1593 68.0985 53.3027 67.4348 53.5812C66.7711 53.8597 66.1682 54.2679 65.6605 54.7824L60.406 60.0928V36.5394C60.406 35.0702 59.8294 33.6613 58.8029 32.6224C57.7765 31.5836 56.3843 31 54.9326 31C53.481 31 52.0888 31.5836 51.0623 32.6224C50.0359 33.6613 49.4592 35.0702 49.4592 36.5394V60.0928L44.2048 54.7824C43.1672 53.8039 41.7948 53.2712 40.3769 53.2965C38.9589 53.3219 37.6059 53.9032 36.6031 54.9181C35.6003 55.933 35.0259 57.3023 35.0009 58.7373C34.9758 60.1724 35.5022 61.5613 36.469 62.6114L51.0648 77.383C52.092 78.4186 53.4828 79 54.9326 79C56.3825 79 57.7733 78.4186 58.8005 77.383L73.3963 62.6114C73.9047 62.0976 74.308 61.4874 74.5832 60.8157C74.8584 60.144 75 59.424 75 58.6969C75 57.9697 74.8584 57.2497 74.5832 56.5781C74.308 55.9064 73.9047 55.2962 73.3963 54.7824Z" fill="#F07087"/>
</svg>
