<svg width="111" height="110" viewBox="0 0 111 110" fill="none" xmlns="http://www.w3.org/2000/svg">
<path opacity="0.4" d="M55.6666 110C86.0423 110 110.667 85.3757 110.667 55C110.667 24.6243 86.0423 0 55.6666 0C25.291 0 0.666626 24.6243 0.666626 55C0.666626 85.3757 25.291 110 55.6666 110Z" fill="#46B16C"/>
<path d="M49.2481 71.9567C48.1554 71.9566 47.1072 71.5235 46.3331 70.7522L33.5016 57.9152C32.773 57.1332 32.3763 56.099 32.3952 55.0303C32.414 53.9616 32.8469 52.942 33.6027 52.1862C34.3585 51.4305 35.3781 50.9976 36.4468 50.9787C37.5154 50.9598 38.5497 51.3565 39.3316 52.0852L49.2316 61.9852L72.0016 39.2482C72.7777 38.4751 73.829 38.0419 74.9244 38.044C76.0198 38.046 77.0695 38.4831 77.8426 39.2592C78.6157 40.0352 79.0489 41.0865 79.0468 42.1819C79.0448 43.2773 78.6077 44.3271 77.8316 45.1002L52.1686 70.7687C51.3905 71.5352 50.3404 71.9624 49.2481 71.9567Z" fill="#46B16C"/>
</svg>
