<svg width="110" height="110" viewBox="0 0 110 110" fill="none" xmlns="http://www.w3.org/2000/svg">
<path opacity="0.4" d="M55 110C85.3757 110 110 85.3757 110 55C110 24.6243 85.3757 0 55 0C24.6243 0 -1.52588e-05 24.6243 -1.52588e-05 55C-1.52588e-05 85.3757 24.6243 110 55 110Z" fill="#FAA629"/>
<path d="M54.5634 43.7604L65.5718 54.7688L45.9052 74.3322H35V63.4221L54.5634 43.7604ZM73.0452 41.1545L68.1777 36.287C67.7715 35.8791 67.2888 35.5554 66.7573 35.3346C66.2257 35.1137 65.6558 35 65.0802 35C64.5046 35 63.9346 35.1137 63.403 35.3346C62.8715 35.5554 62.3888 35.8791 61.9827 36.287L58.0051 40.3187L69.0135 51.332L73.0452 47.3495C73.4531 46.9434 73.7768 46.4607 73.9976 45.9291C74.2185 45.3976 74.3322 44.8276 74.3322 44.252C74.3322 43.6764 74.2185 43.1065 73.9976 42.5749C73.7768 42.0433 73.4531 41.5606 73.0452 41.1545Z" fill="#FAA629"/>
</svg>
