<svg width="73" height="68" viewBox="0 0 73 68" fill="none" xmlns="http://www.w3.org/2000/svg">
<path opacity="0.4" d="M8.59378 52.631C3.47039 46.9984 0.707069 39.6125 0.875029 32.0002C0.875029 12.2085 16.8271 0.333496 36.5 0.333496C56.173 0.333496 72.125 12.2085 72.125 32.0002C72.125 51.7918 56.173 63.6668 36.5 63.6668C31.6686 63.6964 26.866 62.9205 22.2896 61.371C16.9854 67.0314 8.3167 67.7835 2.69586 67.5856C2.31716 67.5685 1.95234 67.438 1.64868 67.2111C1.34502 66.9841 1.11652 66.6712 0.992815 66.3129C0.869105 65.9545 0.855884 65.5673 0.954866 65.2014C1.05385 64.8354 1.26047 64.5077 1.54795 64.2606C5.25705 61.3916 7.76808 57.2469 8.59378 52.631Z" fill="#FEC269"/>
<path d="M36.5792 24.0837C36.0594 24.0863 35.5441 23.9864 35.0629 23.7899C34.5817 23.5934 34.1438 23.304 33.7744 22.9383C33.0284 22.1997 32.6063 21.1949 32.6011 20.1451C32.5958 19.0953 33.0078 18.0864 33.7464 17.3404C34.4851 16.5943 35.4898 16.1722 36.5396 16.167H36.5792C37.629 16.167 38.6358 16.584 39.3782 17.3264C40.1205 18.0687 40.5375 19.0755 40.5375 20.1253C40.5375 21.1751 40.1205 22.182 39.3782 22.9243C38.6358 23.6666 37.629 24.0837 36.5792 24.0837ZM39.4688 43.8753V32.0003C39.4688 31.213 39.156 30.4579 38.5992 29.9011C38.0425 29.3444 37.2874 29.0316 36.5 29.0316C35.7127 29.0316 34.9575 29.3444 34.4008 29.9011C33.844 30.4579 33.5313 31.213 33.5313 32.0003V43.8753C33.5313 44.6627 33.844 45.4178 34.4008 45.9746C34.9575 46.5313 35.7127 46.8441 36.5 46.8441C37.2874 46.8441 38.0425 46.5313 38.5992 45.9746C39.156 45.4178 39.4688 44.6627 39.4688 43.8753Z" fill="#FEC269"/>
</svg>
