<svg width="84" height="83" viewBox="0 0 84 83" fill="none" xmlns="http://www.w3.org/2000/svg">
<path opacity="0.4" d="M80.0833 42.9996C80.0855 48.2941 79.0255 53.5352 76.9661 58.4127C74.9066 63.2902 71.8896 67.705 68.0937 71.3958C64.2977 75.0866 59.7999 77.9783 54.8664 79.8999C49.933 81.8215 44.6642 82.7338 39.3719 82.5829C29.2964 82.1964 19.7381 78.0208 12.6085 70.8911C5.47878 63.7615 1.30318 54.2032 0.916654 44.1277C0.765761 38.8354 1.67811 33.5666 3.59969 28.6332C5.52127 23.6997 8.41303 19.2019 12.1038 15.4059C15.7946 11.61 20.2094 8.59297 25.0869 6.53355C29.9644 4.47413 35.2055 3.41412 40.5 3.41627C45.5867 3.39776 50.6271 4.38376 55.3319 6.31773C55.4806 6.3833 55.6146 6.47822 55.7257 6.59681C55.8369 6.7154 55.9229 6.85522 55.9788 7.00788C56.0346 7.16054 56.059 7.32289 56.0505 7.48522C56.0421 7.64754 56.0009 7.80648 55.9296 7.95252C54.7677 10.5199 54.2316 13.3263 54.3652 16.1412C54.4988 18.956 55.2984 21.699 56.6983 24.1448C58.0981 26.5905 60.0583 28.6693 62.4177 30.2102C64.7771 31.7511 67.4685 32.7102 70.2706 33.0088C72.6391 33.2545 75.0328 33.0339 77.3165 32.3596C77.4679 32.309 77.628 32.2894 77.7871 32.302C77.9463 32.3147 78.1012 32.3593 78.2428 32.4332C78.3843 32.5071 78.5095 32.6088 78.6108 32.7321C78.7121 32.8555 78.7875 32.9981 78.8325 33.1513C79.6665 36.3675 80.0869 39.677 80.0833 42.9996Z" fill="#396CE8"/>
<path d="M52.2642 50.9836C52.2639 48.6685 51.4903 46.4199 50.066 44.5947C48.6417 42.7696 46.6485 41.4726 44.4029 40.9097L38.0379 39.3263C37.0661 39.0832 36.2052 38.5182 35.5956 37.7232C34.9912 36.9493 34.6662 35.9937 34.6733 35.0118C34.6754 33.8349 35.1441 32.7068 35.9767 31.875C36.8092 31.0432 37.9377 30.5755 39.1146 30.5745H41.8854C42.9794 30.5764 44.0344 30.981 44.8491 31.7111C45.6639 32.4412 46.1814 33.4456 46.3029 34.5328C46.3353 34.9288 46.4469 35.3143 46.6311 35.6664C46.8152 36.0184 47.0682 36.33 47.3749 36.5825C47.6817 36.835 48.036 37.0234 48.4169 37.1365C48.7978 37.2496 49.1976 37.285 49.5924 37.2408C49.9873 37.1965 50.3692 37.0734 50.7157 36.8788C51.0621 36.6842 51.3659 36.4221 51.6092 36.1079C51.8524 35.7938 52.0301 35.434 52.1318 35.0498C52.2334 34.6657 52.2569 34.2651 52.2008 33.8718C51.9464 31.5919 50.9423 29.4611 49.3462 27.8134C47.7501 26.1657 45.6522 25.0944 43.3817 24.7676V23.208C43.3817 22.4206 43.0689 21.6655 42.5121 21.1088C41.9554 20.552 41.2003 20.2393 40.4129 20.2393C39.6255 20.2393 38.8704 20.552 38.3137 21.1088C37.7569 21.6655 37.4442 22.4206 37.4442 23.208V24.7913C35.0895 25.1744 32.9391 26.3582 31.3559 28.1429C29.7728 29.9275 28.8539 32.2038 28.7543 34.5874C28.6548 36.9709 29.3807 39.3159 30.8095 41.2263C32.2383 43.1368 34.2825 44.4957 36.5971 45.0738L42.9621 46.6572C44.0127 46.9217 44.9306 47.5609 45.5432 48.4546C46.1557 49.3483 46.4208 50.435 46.2886 51.5103C46.1563 52.5857 45.6359 53.5757 44.8251 54.2944C44.0143 55.0131 42.9689 55.4108 41.8854 55.413H39.1146C38.0206 55.411 36.9656 55.0064 36.1509 54.2764C35.3361 53.5463 34.8186 52.5419 34.6971 51.4547C34.6646 51.0587 34.553 50.6732 34.3689 50.3211C34.1848 49.969 33.9318 49.6575 33.625 49.405C33.3183 49.1524 32.964 48.9641 32.5831 48.851C32.2021 48.7379 31.8024 48.7025 31.4076 48.7467C31.0127 48.791 30.6307 48.914 30.2843 49.1086C29.9379 49.3032 29.6341 49.5654 29.3908 49.8795C29.1476 50.1937 28.9699 50.5535 28.8682 50.9376C28.7666 51.3217 28.7431 51.7223 28.7992 52.1157C29.0485 54.3677 30.0288 56.476 31.5901 58.1181C33.1513 59.7601 35.2076 60.8454 37.4442 61.208V62.7913C37.4442 63.5787 37.7569 64.3338 38.3137 64.8906C38.8704 65.4473 39.6255 65.7601 40.4129 65.7601C41.2003 65.7601 41.9554 65.4473 42.5121 64.8906C43.0689 64.3338 43.3817 63.5787 43.3817 62.7913V61.208C45.8473 60.8605 48.1043 59.6335 49.7366 57.7531C51.3689 55.8727 52.2666 53.4657 52.2642 50.9757V50.9836Z" fill="#396CE8"/>
<path d="M82.1813 13.1936C81.9059 12.9178 81.5789 12.6991 81.2189 12.5498C80.8589 12.4006 80.4731 12.3237 80.0834 12.3237C79.6937 12.3237 79.3078 12.4006 78.9478 12.5498C78.5878 12.6991 78.2608 12.9178 77.9855 13.1936L75.1355 16.0396V3.4165C75.1355 2.62914 74.8227 1.87403 74.2659 1.31728C73.7092 0.760532 72.9541 0.447754 72.1667 0.447754C71.3793 0.447754 70.6242 0.760532 70.0675 1.31728C69.5107 1.87403 69.198 2.62914 69.198 3.4165V16.0396L66.348 13.1936C65.7852 12.6692 65.0408 12.3837 64.2717 12.3973C63.5026 12.4108 62.7688 12.7224 62.2249 13.2663C61.6809 13.8103 61.3694 14.5441 61.3558 15.3132C61.3422 16.0823 61.6277 16.8266 62.1521 17.3894L70.0688 25.3061C70.6259 25.8611 71.3803 26.1727 72.1667 26.1727C72.9531 26.1727 73.7075 25.8611 74.2646 25.3061L82.1813 17.3894C82.457 17.1141 82.6758 16.787 82.8251 16.4271C82.9743 16.0671 83.0512 15.6812 83.0512 15.2915C83.0512 14.9018 82.9743 14.5159 82.8251 14.156C82.6758 13.796 82.457 13.4689 82.1813 13.1936Z" fill="#396CE8"/>
</svg>
