<svg width="84" height="84" viewBox="0 0 84 84" fill="none" xmlns="http://www.w3.org/2000/svg">
<path opacity="0.4" d="M80.0833 43.4996C80.0855 48.7941 79.0255 54.0352 76.9661 58.9127C74.9066 63.7902 71.8896 68.205 68.0937 71.8958C64.2977 75.5866 59.7999 78.4783 54.8664 80.3999C49.933 82.3215 44.6642 83.2338 39.3719 83.0829C29.2964 82.6964 19.7381 78.5208 12.6085 71.3911C5.47878 64.2615 1.30318 54.7032 0.916654 44.6277C0.765761 39.3354 1.67811 34.0666 3.59969 29.1332C5.52127 24.1997 8.41303 19.7019 12.1038 15.9059C15.7946 12.11 20.2094 9.09297 25.0869 7.03355C29.9644 4.97413 35.2055 3.91412 40.5 3.91627C45.5867 3.89776 50.6271 4.88376 55.3319 6.81773C55.4806 6.8833 55.6146 6.97822 55.7257 7.09681C55.8369 7.2154 55.9229 7.35522 55.9788 7.50788C56.0346 7.66054 56.059 7.82289 56.0505 7.98522C56.0421 8.14754 56.0009 8.30648 55.9296 8.45252C54.7677 11.0199 54.2316 13.8263 54.3652 16.6412C54.4988 19.456 55.2984 22.199 56.6983 24.6448C58.0981 27.0905 60.0583 29.1693 62.4177 30.7102C64.7771 32.2511 67.4685 33.2102 70.2706 33.5088C72.6391 33.7545 75.0328 33.5339 77.3165 32.8596C77.4679 32.809 77.628 32.7894 77.7871 32.802C77.9463 32.8147 78.1012 32.8593 78.2428 32.9332C78.3843 33.0071 78.5095 33.1088 78.6108 33.2321C78.7121 33.3555 78.7875 33.4981 78.8325 33.6513C79.6665 36.8675 80.0869 40.177 80.0833 43.4996Z" fill="#46B16C"/>
<path d="M52.2642 51.4836C52.2639 49.1685 51.4903 46.9199 50.066 45.0947C48.6417 43.2696 46.6485 41.9726 44.4029 41.4097L38.0379 39.8263C37.0661 39.5832 36.2052 39.0182 35.5956 38.2232C34.9912 37.4493 34.6662 36.4937 34.6733 35.5118C34.6754 34.3349 35.1441 33.2068 35.9767 32.375C36.8092 31.5432 37.9377 31.0755 39.1146 31.0745H41.8854C42.9794 31.0764 44.0344 31.481 44.8491 32.2111C45.6639 32.9412 46.1814 33.9456 46.3029 35.0328C46.3353 35.4288 46.4469 35.8143 46.6311 36.1664C46.8152 36.5184 47.0682 36.83 47.3749 37.0825C47.6817 37.335 48.036 37.5234 48.4169 37.6365C48.7978 37.7496 49.1976 37.785 49.5924 37.7408C49.9873 37.6965 50.3692 37.5734 50.7157 37.3788C51.0621 37.1842 51.3659 36.9221 51.6092 36.6079C51.8524 36.2938 52.0301 35.934 52.1318 35.5498C52.2334 35.1657 52.2569 34.7651 52.2008 34.3718C51.9464 32.0919 50.9423 29.9611 49.3462 28.3134C47.7501 26.6657 45.6522 25.5944 43.3817 25.2676V23.708C43.3817 22.9206 43.0689 22.1655 42.5121 21.6088C41.9554 21.052 41.2003 20.7393 40.4129 20.7393C39.6255 20.7393 38.8704 21.052 38.3137 21.6088C37.7569 22.1655 37.4442 22.9206 37.4442 23.708V25.2913C35.0895 25.6744 32.9391 26.8582 31.3559 28.6429C29.7728 30.4275 28.8539 32.7038 28.7543 35.0874C28.6548 37.4709 29.3807 39.8159 30.8095 41.7263C32.2383 43.6368 34.2825 44.9957 36.5971 45.5738L42.9621 47.1572C44.0127 47.4217 44.9306 48.0609 45.5432 48.9546C46.1557 49.8483 46.4208 50.935 46.2886 52.0103C46.1563 53.0857 45.6359 54.0757 44.8251 54.7944C44.0143 55.5131 42.9689 55.9108 41.8854 55.913H39.1146C38.0206 55.911 36.9656 55.5064 36.1509 54.7764C35.3361 54.0463 34.8186 53.0419 34.6971 51.9547C34.6646 51.5587 34.553 51.1732 34.3689 50.8211C34.1848 50.469 33.9318 50.1575 33.625 49.905C33.3183 49.6524 32.964 49.4641 32.5831 49.351C32.2021 49.2379 31.8024 49.2025 31.4076 49.2467C31.0127 49.291 30.6307 49.414 30.2843 49.6086C29.9379 49.8032 29.6341 50.0654 29.3908 50.3795C29.1476 50.6937 28.9699 51.0535 28.8682 51.4376C28.7666 51.8217 28.7431 52.2223 28.7992 52.6157C29.0485 54.8677 30.0288 56.976 31.5901 58.6181C33.1513 60.2601 35.2076 61.3454 37.4442 61.708V63.2913C37.4442 64.0787 37.7569 64.8338 38.3137 65.3906C38.8704 65.9473 39.6255 66.2601 40.4129 66.2601C41.2003 66.2601 41.9554 65.9473 42.5121 65.3906C43.0689 64.8338 43.3817 64.0787 43.3817 63.2913V61.708C45.8473 61.3605 48.1043 60.1335 49.7366 58.2531C51.3689 56.3727 52.2666 53.9657 52.2642 51.4757V51.4836Z" fill="#46B16C"/>
<path d="M82.1813 13.6936C81.9059 13.4178 81.5789 13.1991 81.2189 13.0498C80.8589 12.9006 80.4731 12.8237 80.0834 12.8237C79.6937 12.8237 79.3078 12.9006 78.9478 13.0498C78.5878 13.1991 78.2608 13.4178 77.9855 13.6936L75.1355 16.5396V3.9165C75.1355 3.12914 74.8227 2.37403 74.2659 1.81728C73.7092 1.26053 72.9541 0.947754 72.1667 0.947754C71.3793 0.947754 70.6242 1.26053 70.0675 1.81728C69.5107 2.37403 69.198 3.12914 69.198 3.9165V16.5396L66.348 13.6936C65.7852 13.1692 65.0408 12.8837 64.2717 12.8973C63.5026 12.9108 62.7688 13.2224 62.2249 13.7663C61.6809 14.3103 61.3694 15.0441 61.3558 15.8132C61.3422 16.5823 61.6277 17.3266 62.1521 17.8894L70.0688 25.8061C70.6259 26.3611 71.3803 26.6727 72.1667 26.6727C72.9531 26.6727 73.7075 26.3611 74.2646 25.8061L82.1813 17.8894C82.457 17.6141 82.6758 17.287 82.8251 16.9271C82.9743 16.5671 83.0512 16.1812 83.0512 15.7915C83.0512 15.4018 82.9743 15.0159 82.8251 14.656C82.6758 14.296 82.457 13.9689 82.1813 13.6936Z" fill="#46B16C"/>
</svg>
