<svg width="50" height="50" viewBox="0 0 50 50" fill="none" xmlns="http://www.w3.org/2000/svg">
<path opacity="0.4" d="M43.75 20.2709C43.7465 20.1777 43.7227 20.0865 43.6803 20.0035C43.638 19.9204 43.578 19.8476 43.5046 19.7901C43.4313 19.7326 43.3463 19.6918 43.2555 19.6705C43.1648 19.6492 43.0705 19.6479 42.9792 19.6667C42.3956 19.7758 41.8007 19.8108 41.2083 19.7709C39.4454 19.6486 37.7858 18.8944 36.5343 17.6467C35.2828 16.3991 34.5235 14.7418 34.3958 12.9792C34.3559 12.38 34.3909 11.7781 34.5 11.1876C34.522 11.096 34.523 11.0006 34.5029 10.9086C34.4829 10.8166 34.4423 10.7303 34.3842 10.6562C34.3261 10.582 34.252 10.522 34.1674 10.4805C34.0829 10.4391 33.99 10.4173 33.8958 10.4167H12.5C11.651 10.2956 10.7855 10.3738 9.97199 10.645C9.15846 10.9163 8.41924 11.3732 7.81285 11.9796C7.20646 12.586 6.74955 13.3252 6.47829 14.1387C6.20703 14.9522 6.12887 15.8178 6.25 16.6667V35.4167C6.12887 36.2657 6.20703 37.1312 6.47829 37.9447C6.74955 38.7583 7.20646 39.4975 7.81285 40.1039C8.41924 40.7103 9.15846 41.1672 9.97199 41.4384C10.7855 41.7097 11.651 41.7879 12.5 41.6667H37.5C38.349 41.7879 39.2145 41.7097 40.028 41.4384C40.8416 41.1672 41.5808 40.7103 42.1872 40.1039C42.7936 39.4975 43.2505 38.7583 43.5217 37.9447C43.793 37.1312 43.8711 36.2657 43.75 35.4167V20.2709Z" fill="#815AF0"/>
<path d="M41.6667 16.6668C43.9679 16.6668 45.8333 14.8013 45.8333 12.5002C45.8333 10.199 43.9679 8.3335 41.6667 8.3335C39.3655 8.3335 37.5 10.199 37.5 12.5002C37.5 14.8013 39.3655 16.6668 41.6667 16.6668Z" fill="#815AF0"/>
<path d="M25 30.1501C24.1709 30.1495 23.3668 29.8658 22.7208 29.346L13.6063 22.0543C13.2982 21.7902 13.1048 21.4167 13.0669 21.0126C13.029 20.6086 13.1495 20.2057 13.4031 19.8889C13.6567 19.572 14.0234 19.3661 14.4259 19.3146C14.8284 19.263 15.2352 19.3699 15.5604 19.6126L24.675 26.9043C24.7676 26.9773 24.8821 27.017 25 27.017C25.1179 27.017 25.2324 26.9773 25.325 26.9043L34.4396 19.6126C34.599 19.476 34.7842 19.3728 34.9842 19.3093C35.1843 19.2457 35.3951 19.2231 35.6041 19.2427C35.8131 19.2623 36.016 19.3238 36.2008 19.4234C36.3855 19.5231 36.5483 19.6589 36.6795 19.8228C36.8106 19.9867 36.9075 20.1753 36.9643 20.3774C37.021 20.5795 37.0365 20.7909 37.0099 20.9991C36.9832 21.2073 36.9149 21.4081 36.8091 21.5893C36.7032 21.7706 36.562 21.9287 36.3938 22.0543L27.2792 29.346C26.6332 29.8658 25.8292 30.1495 25 30.1501Z" fill="#815AF0"/>
</svg>
