<svg width="42" height="42" viewBox="0 0 42 42" fill="none" xmlns="http://www.w3.org/2000/svg">
<path d="M16.7125 32.2647C12.1542 31.4606 10.2792 28.7786 11.0875 24.2189L13.8771 8.35223V8.33765L5.98333 9.72723C1.42361 10.537 -0.45139 13.2224 0.358332 17.7835L3.57708 36.0251C4.3618 40.5863 7.03889 42.4613 11.6083 41.6501L25.2896 39.2418C28.4854 38.6647 30.3833 37.1585 30.8917 34.7522L30.8771 34.7272C30.7146 34.7043 30.5667 34.7043 30.4 34.6751L16.7125 32.2647Z" fill="#815AF0"/>
<path opacity="0.4" d="M36.0188 2.75844L22.3417 0.348023C17.7819 -0.456143 15.1 1.41886 14.2958 5.97302L13.8792 8.34386L11.0792 24.2189C10.2764 28.7786 12.1514 31.4605 16.7042 32.2647L30.3833 34.6751C30.55 34.7043 30.6979 34.7043 30.8604 34.7272C35.1188 35.3126 37.6542 33.4334 38.4292 29.0418L41.6438 10.8043C42.4535 6.24594 40.5785 3.564 36.0188 2.75844Z" fill="#815AF0"/>
<path d="M33.2063 20.2792C33.1155 20.2799 33.0248 20.2722 32.9354 20.2563L19.2563 17.8438C18.8548 17.765 18.5004 17.5319 18.2689 17.1945C18.0375 16.8572 17.9476 16.4426 18.0185 16.0397C18.0894 15.6368 18.3155 15.2778 18.6482 15.0398C18.9809 14.8018 19.3937 14.7038 19.7979 14.7667L33.475 17.1792C33.8582 17.2486 34.2017 17.4585 34.4381 17.7679C34.6746 18.0772 34.7871 18.4638 34.7534 18.8517C34.7198 19.2397 34.5425 19.6011 34.2563 19.8651C33.9701 20.1292 33.5956 20.2769 33.2063 20.2792ZM36.2083 12.1938C36.244 11.9916 36.2395 11.7844 36.195 11.5839C36.1505 11.3835 36.067 11.1938 35.9492 11.0257C35.8313 10.8575 35.6815 10.7143 35.5083 10.6041C35.3351 10.4939 35.1418 10.4189 34.9396 10.3834L21.2563 7.97298C20.8521 7.91 20.4393 8.00805 20.1066 8.24607C19.7739 8.48408 19.5478 8.84308 19.4769 9.24597C19.4059 9.64885 19.4958 10.0635 19.7273 10.4008C19.9587 10.7381 20.3132 10.9712 20.7146 11.0501L34.3938 13.4626C34.4839 13.4784 34.5752 13.486 34.6667 13.4855C35.0347 13.4866 35.3913 13.3575 35.6734 13.1212C35.9555 12.8848 36.145 12.5563 36.2083 12.1938ZM28.4042 24.9584C28.4398 24.7562 28.4353 24.549 28.3908 24.3485C28.3464 24.1481 28.2628 23.9584 28.145 23.7903C28.0272 23.6221 27.8773 23.4789 27.7041 23.3686C27.5309 23.2584 27.3376 23.1835 27.1354 23.148L18.5938 21.6396C18.1854 21.5678 17.7653 21.6611 17.4258 21.8991C17.0863 22.137 16.8552 22.5001 16.7833 22.9084C16.7115 23.3167 16.8048 23.7369 17.0428 24.0764C17.2807 24.4159 17.6438 24.647 18.0521 24.7188L26.5938 26.2251C26.6831 26.2416 26.7737 26.25 26.8646 26.2501C27.2321 26.2502 27.588 26.1208 27.8696 25.8846C28.1512 25.6483 28.3405 25.3204 28.4042 24.9584Z" fill="#815AF0"/>
</svg>
