<svg width="50" height="50" viewBox="0 0 50 50" fill="none" xmlns="http://www.w3.org/2000/svg">
<path opacity="0.4" d="M30.9771 30.8206L28.6542 34.2894C22.8057 31.8317 18.1582 27.1729 15.7146 21.3185L19.1667 19.0165C20.0777 18.4103 20.7214 17.4778 20.9652 16.4111C21.209 15.3444 21.0343 14.2248 20.4771 13.2831L17.2271 7.7852C16.8973 7.22658 16.4018 6.78445 15.8093 6.52015C15.2169 6.25584 14.5569 6.18247 13.9208 6.3102H13.8875C12.6211 6.55777 11.4189 7.06264 10.3555 7.79357C9.29208 8.5245 8.39 9.46593 7.70511 10.5596C7.02021 11.6532 6.56708 12.8758 6.37377 14.1516C6.18046 15.4275 6.25108 16.7294 6.58126 17.9769C8.24846 24.0622 11.4716 29.6085 15.9333 34.0699C20.395 38.5313 25.9416 41.7539 32.0271 43.4206C33.2748 43.7505 34.577 43.8207 35.8529 43.627C37.1289 43.4333 38.3515 42.9797 39.4452 42.2945C40.5388 41.6092 41.4801 40.7068 42.2109 39.643C42.9417 38.5793 43.4464 37.3769 43.6938 36.1102C43.8212 35.4772 43.7494 34.8202 43.4883 34.2297C43.2271 33.6391 42.7895 33.144 42.2354 32.8123L36.7313 29.529C35.7898 28.9642 34.6671 28.7833 33.5958 29.0237C32.5245 29.2642 31.5869 29.9076 30.9771 30.8206Z" fill="#815AF0"/>
<path d="M35.4167 22.3955C35.0023 22.3955 34.6048 22.2309 34.3118 21.9379C34.0188 21.6448 33.8542 21.2474 33.8542 20.833C33.8525 19.5903 33.3581 18.399 32.4794 17.5203C31.6007 16.6416 30.4094 16.1472 29.1667 16.1455C28.7523 16.1455 28.3548 15.9809 28.0618 15.6879C27.7688 15.3948 27.6042 14.9974 27.6042 14.583C27.6042 14.1686 27.7688 13.7712 28.0618 13.4782C28.3548 13.1851 28.7523 13.0205 29.1667 13.0205C31.2378 13.0233 33.2234 13.8472 34.6879 15.3118C36.1524 16.7763 36.9764 18.7618 36.9792 20.833C36.9792 21.2474 36.8146 21.6448 36.5215 21.9379C36.2285 22.2309 35.8311 22.3955 35.4167 22.3955ZM43.2292 20.833C43.2248 17.1048 41.7418 13.5305 39.1055 10.8942C36.4692 8.25792 32.8949 6.77492 29.1667 6.77051C28.7523 6.77051 28.3548 6.93513 28.0618 7.22815C27.7688 7.52118 27.6042 7.91861 27.6042 8.33301C27.6042 8.74741 27.7688 9.14484 28.0618 9.43786C28.3548 9.73089 28.7523 9.89551 29.1667 9.89551C32.0665 9.89882 34.8465 11.0522 36.897 13.1027C38.9475 15.1531 40.1009 17.9332 40.1042 20.833C40.1042 21.2474 40.2688 21.6448 40.5618 21.9379C40.8548 22.2309 41.2523 22.3955 41.6667 22.3955C42.0811 22.3955 42.4785 22.2309 42.7715 21.9379C43.0646 21.6448 43.2292 21.2474 43.2292 20.833Z" fill="#815AF0"/>
</svg>
