<?xml version="1.0" encoding="utf-8"?>
<!-- Generator: Adobe Illustrator 26.5.0, SVG Export Plug-In . SVG Version: 6.00 Build 0)  -->
<svg version="1.1" id="Warstwa_1" xmlns="http://www.w3.org/2000/svg" xmlns:xlink="http://www.w3.org/1999/xlink" x="0px" y="0px"
	 viewBox="0 0 101 100" style="enable-background:new 0 0 101 100;" xml:space="preserve">
<style type="text/css">
	.st0{fill:#FAC7D0;}
	.st1{fill:#F27389;}
</style>
<path class="st0" d="M50.5,91.7c-11.1,0-21.7-4.3-29.5-12.1C13.1,71.8,8.7,61.2,8.6,50.2c0-11.1,4.3-21.7,12.1-29.5
	c7.8-7.8,18.4-12.3,29.4-12.3c9.5-0.1,18.8,3.1,26.3,9c7.5,5.9,12.8,14.1,15,23.4C96,63.9,78.3,68.5,69.1,68.5h-9.3
	c-13.4,0-13.6,9.2-8.1,12.3C59.1,85,58.3,91.7,50.5,91.7L50.5,91.7z"/>
<path class="st1" d="M71.4,46.9c-1.4,0-2.7-0.5-3.7-1.5c-1-1-1.5-2.3-1.5-3.7s0.5-2.7,1.5-3.7c1-1,2.3-1.5,3.7-1.5h0
	c1.4,0,2.7,0.5,3.7,1.5c1,1,1.5,2.3,1.5,3.7c0,1.4-0.5,2.7-1.5,3.7C74.1,46.3,72.8,46.9,71.4,46.9z M47.5,29.2
	c0-1.4-0.5-2.7-1.5-3.7c-1-1-2.3-1.5-3.7-1.5h0c-1,0-2,0.3-2.9,0.9c-0.9,0.6-1.5,1.4-1.9,2.3c-0.4,1-0.5,2-0.3,3
	c0.2,1,0.7,1.9,1.4,2.7c0.7,0.7,1.7,1.2,2.7,1.4c1,0.2,2.1,0.1,3-0.3c0.9-0.4,1.8-1.1,2.3-1.9C47.2,31.2,47.5,30.2,47.5,29.2
	L47.5,29.2z M64.1,29.2c0-1.4-0.5-2.7-1.5-3.7c-1-1-2.3-1.5-3.7-1.5h0c-1,0-2,0.3-2.9,0.9c-0.9,0.6-1.5,1.4-1.9,2.3
	c-0.4,1-0.5,2-0.3,3c0.2,1,0.7,1.9,1.4,2.7c0.7,0.7,1.7,1.2,2.7,1.4c1,0.2,2.1,0.1,3-0.3s1.8-1.1,2.3-1.9
	C63.8,31.2,64.1,30.2,64.1,29.2L64.1,29.2z M35,41.7c0-1.4-0.5-2.7-1.5-3.7c-1-1-2.3-1.5-3.7-1.5h0c-1,0-2,0.3-2.9,0.9
	s-1.5,1.4-1.9,2.3c-0.4,1-0.5,2-0.3,3c0.2,1,0.7,1.9,1.4,2.7c0.7,0.7,1.7,1.2,2.7,1.4c1,0.2,2.1,0.1,3-0.3c0.9-0.4,1.8-1.1,2.3-1.9
	C34.7,43.7,35,42.7,35,41.7z M35,58.3c0-1.4-0.5-2.7-1.5-3.7c-1-1-2.3-1.5-3.7-1.5h0c-1,0-2,0.3-2.9,0.9c-0.9,0.6-1.5,1.4-1.9,2.3
	s-0.5,2-0.3,3c0.2,1,0.7,1.9,1.4,2.7c0.7,0.7,1.7,1.2,2.7,1.4c1,0.2,2.1,0.1,3-0.3c0.9-0.4,1.8-1.1,2.3-1.9
	C34.7,60.4,35,59.4,35,58.3L35,58.3z"/>
</svg>
